<?xml version="1.0" encoding="utf-8"?>
<!-- Generator: Adobe Illustrator 20.0.0, SVG Export Plug-In . SVG Version: 6.00 Build 0)  -->
<svg version="1.1" id="Layer_1" xmlns="http://www.w3.org/2000/svg" xmlns:xlink="http://www.w3.org/1999/xlink" x="0px" y="0px"
	 viewBox="0 0 200 100" style="enable-background:new 0 0 200 100;" xml:space="preserve">
<style type="text/css">
	.st0{fill:none;}
	.st1{fill:#FFFFFF;}
</style>
<g>
	<path class="st0" d="M473.8,121.5L473.8,121.5C473.9,121.5,473.8,121.4,473.8,121.5L473.8,121.5z M499.4,109.1
		c0.3-0.2,0.5-0.5,0.5-0.9c0-1.8-0.2-3.1-0.6-3.8c-0.4-0.7-0.7-1.2-1-1.3h-0.1c-0.2,0.1-0.4,0.1-0.5,0.1c-0.1,0-0.4,0.1-0.9,0.1
		c0.7-3.2,1.5-6.6,2.3-9.9c0.8-3.4,1.7-6.7,2.6-10c0.9-3.3,1.8-6.4,2.7-9.4c0.9-3,1.8-5.7,2.7-8.1v-0.2c0-0.1-0.2-0.2-0.5-0.4
		c-0.3-0.2-0.8-0.4-1.3-0.5c-0.5-0.2-1.1-0.3-1.7-0.5c-0.6-0.1-1.2-0.2-1.8-0.2c-0.5,0-0.8,0.2-0.9,0.5c-0.4,0.8-0.9,2.6-1.5,5.1
		c-0.7,2.6-1.3,5.7-2.1,9.3c-0.7,3.6-1.5,7.6-2.2,11.9c-0.8,4.3-1.4,8.5-2,12.7c-1.7,0.2-3.6,0.3-5.8,0.4c-2.2,0.1-4.6,0.2-7.2,0.5
		c-0.9-0.7-1.8-1.3-2.6-1.8c0.5-1.8,0.9-3.6,1.4-5.5c0.4-1.7,0.8-3.5,1.3-5.3c-0.1,0.6-0.3,1.3-0.4,1.9c-0.2,0.7-0.3,1.5-0.3,2.4
		v0.2h-0.1c0,0.5-0.1,0.9-0.3,1.3c0,0.1,0,0.2,0,0.3c0,0.1,0,0.2,0,0.3l-0.1,0.1l0.1,0.2v0.1l-0.1-0.3l0,0v-0.1l-0.1,0.4l-0.1,0.5
		v0.3l-0.1,0.2c0,0.1,0,0.1,0.1,0.1l0.3,0.2l0.1-0.4c0.1-0.4,0.1-0.8,0.3-1.3c0.1-0.5,0.2-1,0.4-1.5h0.1v-0.3l0.1-0.2h-0.1l0.1-0.5
		h0.1v-0.1c0-0.1,0-0.2,0-0.3c0-0.1,0-0.2,0-0.2l0.2-0.9l0.2-1l0.2-0.2c0-0.1,0-0.2-0.1-0.3l0.1-0.2v0.1l0.1-0.6l0.1-0.2
		c0.1-0.5,0.2-1.1,0.3-1.6c0.1-0.5,0.2-1.1,0.3-1.7v0.1l0.1-0.3l0.3-1.5v-0.3l0.1-0.3l0.1-0.5c0-0.1,0-0.1,0-0.3c0-0.1,0-0.2,0-0.3
		v0.1l0.1-0.4c0-0.1,0-0.1,0-0.2c0-0.1,0-0.2,0-0.2l0.1-0.4c0.7-2.3,1.2-4.7,1.8-7.2c0.5-2.5,1.2-4.9,1.9-7.3
		c0.1-0.6,0.2-1.1,0.3-1.5c0.1-0.4,0.2-0.8,0.2-1.2c0.1-0.4,0.1-0.8,0.1-1.2c0-0.2-0.1-0.6-0.4-1c-0.3-0.5-0.8-0.7-1.6-0.7
		c-1,0-2,0.5-3,1.4c-1,0.9-2,2.1-3,3.4c-1,1.3-2,2.7-2.9,4c-1,1.4-1.9,2.5-2.8,3.4c-2.6,2.6-5.4,4.5-8.3,5.7c-3,1.2-5.7,1.8-8.3,1.8
		c-0.7,0-1.1,0-1.4-0.1c-0.4,0-0.5,0.5-0.5,1.3v3l-0.3,0.1l0.3,0.1c0,0.5,0.1,0.9,0.2,1.2c0.1,0.2,0.3,0.4,0.5,0.5
		c0.2,0.1,0.4,0.1,0.6,0.1c0.2,0,0.3,0,0.4,0c0.9,0,2.2-0.1,3.8-0.4c1.6-0.2,3.4-0.8,5.4-1.6c2-0.8,4.1-2.1,6.3-3.6
		c2.2-1.6,4.4-3.7,6.5-6.3c-0.6,3.2-1.2,6.9-1.8,11.1s-1.2,8.2-1.8,12.2c-1.2-0.5-2.6-1.1-4.2-1.8c-1.6-0.6-3.1-0.9-4.6-0.9
		c-1.1,0-2.2,0.3-3.2,1c-1.1,0.7-1.6,1.8-1.6,3.2c0,0.4,0.1,0.8,0.2,1.3c0.1,0.5,0.2,0.9,0.4,1h-0.1c0.3,0.7,0.7,1.2,1.2,1.6
		c0.5,0.4,1,0.7,1.6,1c0.6,0.3,1.2,0.5,1.8,0.6c0.6,0.2,1.2,0.3,1.7,0.4c0-0.1,0-0.1,0.1-0.1l0.1,0.1h-0.1c0.2,0,0.5,0,0.8,0.1
		c0.3,0.1,0.6,0.1,0.9,0.2c0.1,0,0.2,0,0.2-0.1c0.3,0.1,0.6,0.2,1,0.2c0.4,0,0.7,0,1,0.1h0.7l-0.1,0.1h0.6c0.1,0,0.4,0,0.7,0.1
		c-0.3,2.6-0.6,4.8-0.8,6.8c-0.2,1.9-0.4,3.4-0.4,4.4c0,0.3,0,0.5,0,0.7c0,0.2,0.3,0.3,0.7,0.3c0.1,0,0.2,0,0.2,0c0,0,0.1,0,0.1-0.2
		c0-0.2,0.1-0.4,0.2-0.9c0.1-0.4,0.2-0.9,0.3-1.7l0.1,0.2c-0.1,0.1-0.1,0.3-0.1,0.4s0,0.4-0.1,0.5c0,0.1,0,0.2,0,0.2
		c0,0,0,0.1,0,0.2v0.1l0.1,0.2v0.1l-0.1-0.3v0.3l-0.1-0.1l0.1,0.2l-0.1,0.3v0.2l0.2,0.2l0.2,0.1l0.2,0.1l-0.1-0.4l0,0.1
		c0,0,0-0.1,0-0.1l0,0l0,0c0-0.2,0.1-0.5,0.1-0.8c0-0.4,0.1-0.7,0.2-1.1h0.3l-0.2-0.4l-0.2,0.1l0.2-0.5c0-0.1,0-0.2,0-0.3
		c0-0.1,0-0.1,0-0.2l0.1-0.6l0.2-0.8c0-0.1,0-0.1-0.1-0.2l0.1-0.3l0.1-0.4l0.3-2.5l0.2-1.3l0.1-0.5l-0.1-0.1c0-0.1,0-0.3,0.1-0.5
		c0.1-0.2,0.1-0.4,0.2-0.5v-0.1c0-0.1,0-0.3,0.1-0.4c0.1-0.1,0.1-0.3,0.1-0.4c1.1,0.1,2.2,0.2,3.2,0.2s2.1,0,3.2,0.1
		c1.6,1.4,2.9,2.9,4,4.5c1.1,1.6,2,3.2,2.7,4.7c0.7,1.5,1.2,3,1.6,4.3c0.3,1.4,0.5,2.4,0.5,3.2v1.3c0,0.5,0,0.9,0.1,1.1
		c0.1,0.3,0.3,0.4,0.7,0.4c0.1,0,0.2-0.1,0.4-0.2c0.1-0.1,0.1-0.2,0.1-0.3c-0.1,0-0.1,0-0.1-0.1c0-0.1,0-0.2,0-0.4
		c0-0.1,0-0.3,0-0.4l0.1,0.1v0.5c0,0.1,0,0.2,0.1,0.3c0.1,0.1,0.1,0.1,0.1,0.2h-0.1c0,0.1,0,0.2,0,0.2c0,0,0,0.1,0,0.2l-0.1-0.1
		l0.1,0.4v0.6c0,0.1,0,0.1,0.1,0.1v0.1c-0.1,0-0.1,0-0.1-0.1l0.1,0.4v-0.1l0.1,0.2h0.1c0,0.1,0,0.2,0,0.3l0.1-0.3v0.2
		c0-0.1,0-0.2,0.1-0.4l-0.1-0.3l0.2,0.1l-0.2-0.5v-1h0.1l-0.1-0.2c0-0.2,0-0.4,0-0.6c0-0.2,0-0.4,0-0.7l0.1,0.1v-0.5h-0.1l0.1-0.5
		v-0.5l0.1-0.7l0.1-1.1v-0.9l0.3-3.2v-0.3l0.2-1.4v-0.3l0.1-0.5c-0.1,0-0.1-0.1-0.1-0.2c0.2-1.3,0.5-2.6,0.7-3.9
		c0.2-1.4,0.5-2.8,0.8-4.3h1.4c0.5,0,1,0,1.4-0.1C498.7,109.5,499.1,109.3,499.4,109.1z M479.8,95.4l0.1-0.2l0.1,0.1L479.8,95.4z
		 M481.4,87.7L481.4,87.7v0.2V87.7z M481.1,88.9L481.1,88.9L481.1,88.9L481.1,88.9z M480.8,91.7l0.1-0.2L480.8,91.7L480.8,91.7z
		 M480.8,91.9l0.1,0.2l0.1-0.5v0.1l-0.1,0.4L480.8,91.9L480.8,91.9z M480.7,91.8V92V91.8C480.6,91.8,480.6,91.8,480.7,91.8z
		 M480.4,91.6v0.3h0.1c0,0.1,0,0.1,0,0.1c0,0,0,0,0,0.1l-0.1-0.1C480.4,91.8,480.4,91.7,480.4,91.6z M462,105.6
		c-0.1-0.1-0.2-0.2-0.2-0.3l0.4,0.5L462,105.6z M463.2,107.2c-0.1-0.1-0.1-0.1-0.1-0.2h0.1V107.2z M463.1,106.9l0.2,0.1l0.1,0.1
		L463.1,106.9z M468.2,108.8l-0.2-0.1L468.2,108.8L468.2,108.8L468.2,108.8z M468.5,108.8L468.5,108.8l0.3-0.1L468.5,108.8z
		 M471.7,104.4c-0.6-0.1-1.3-0.1-1.9-0.3c-0.4,0-0.8,0-1.3-0.1c-0.5-0.1-0.9-0.2-1.4-0.4c-0.5-0.1-0.8-0.3-1.1-0.4
		c-0.3-0.1-0.5-0.2-0.5-0.4c0-0.2,0.1-0.4,0.4-0.4c1.3,0,2.6,0.2,4,0.7c1.4,0.5,2.6,0.9,3.8,1.4C473,104.5,472.4,104.4,471.7,104.4z
		 M474.7,115.9L474.7,115.9C474.6,115.8,474.6,115.8,474.7,115.9L474.7,115.9z M474.8,115.9L474.8,115.9L474.8,115.9L474.8,115.9z
		 M474.8,115.7L474.8,115.7L474.8,115.7L474.8,115.7z M491.9,115.3c-0.2,1.7-0.3,3.4-0.4,5c-0.8-1.5-1.5-3.1-2.2-4.9
		c-0.7-1.7-1.9-3.5-3.4-5.4c1.2,0,2.4,0,3.5,0c1.1,0,2.2-0.1,3.2-0.1C492.2,111.7,492,113.5,491.9,115.3z M492.8,126.3
		C492.8,126.3,492.8,126.4,492.8,126.3L492.8,126.3L492.8,126.3z M492.6,127.6l0.4,0.5v0l-0.1-0.1L492.6,127.6z M492.9,130.9
		c0,0,0.1,0.1,0.1,0.2C493,131.1,492.9,131,492.9,130.9z M493,130.7l-0.2-0.6L493,130.7L493,130.7z M492.9,128.6L492.9,128.6
		l0.1,0.2L492.9,128.6z M479.1,100l-0.1,0.2v0.2c0,0.1,0,0.2,0.1,0.2c0,0,0,0,0,0c0,0,0,0,0,0.1v0.1c0-0.1,0-0.1-0.1-0.1l0.1,0.5
		V101h0.1l0-0.2h0.1v-0.1c0-0.1,0-0.2,0.1-0.4l0.1-0.3L479.1,100L479.1,100z M492.8,131.3l0.2,0.5v-0.2h0.1l-0.1-0.2L492.8,131.3
		C492.9,131.3,492.9,131.3,492.8,131.3z M474,122.2C474,122.2,474,122.2,474,122.2l0,0.3v-0.1h0.1L474,122.2L474,122.2z
		 M473.9,122.2C473.9,122.2,474,122.2,473.9,122.2L473.9,122.2L473.9,122.2z M474.2,121.4l0.1-0.2l-0.1,0.1
		C474.2,121.3,474.2,121.3,474.2,121.4L474.2,121.4z M473.9,121.5c0,0,0,0.1,0,0.1v0.1l-0.1-0.1l0.1,0.3v-0.1c0,0.1,0,0.2,0.1,0.2
		v-0.2c0,0.1,0,0.1,0,0.1c0,0,0,0,0,0.1v0.2c0.1,0,0.1-0.1,0.1-0.4v-0.2H474L473.9,121.5z M479.3,98.6L479.3,98.6L479.3,98.6
		L479.3,98.6z M511.3,107.3l-0.1,0.2C511.3,107.4,511.4,107.3,511.3,107.3L511.3,107.3z M567.2,123.9c-0.4-0.2-1.7-0.5-4-1.1
		c-2.3-0.5-5.2-1.1-8.5-1.7c-3.4-0.6-7-1.2-11-1.8c-4-0.6-7.8-1-11.4-1.3c1-3.3,1.7-6.1,1.9-8.5c0.3-2.3,0.6-4.5,1-6.5
		c0.4-3.5,0.7-6.3,0.9-8.4c0.2-2.1,0.3-3.8,0.3-5.2c0-0.7-0.1-1.3-0.4-1.8c-0.3-0.5-0.8-0.8-1.6-0.8c-0.5,0-0.9,0.2-1.1,0.5
		c-0.3,0.3-0.5,0.7-0.6,1.1c-0.2,0.5-0.3,1-0.4,1.5c-0.1,0.7-0.3,2.2-0.5,4.7c-0.2,2.5-0.6,5.6-1.2,9.4v0.3l-0.2,0.4l-0.6,1.8
		c-0.4,0.7-0.8,1.5-1.3,2.4c-0.5,0.9-1,1.7-1.6,2.4c-0.5,0.8-1.1,1.4-1.7,1.9c-0.6,0.5-1.1,0.8-1.5,0.8c-0.7,0-1.1-0.9-1.1-2.7
		c0-2.1,0.3-4.2,1-6.4c0.7-2.2,1.3-4,1.8-5.6c1.2-3.2,2.2-5.6,3.2-7.3c0.9-1.7,1.6-2.9,2.2-3.8c0.6-0.8,1-1.4,1.3-1.8
		c0.3-0.3,0.5-0.7,0.5-1.2c0-0.9-0.3-1.5-0.9-1.9c-0.6-0.4-1-0.5-1.3-0.5c-0.5,0-0.7,0.1-0.7,0.2h0.1c-0.5,0.3-1.4,1.2-2.5,2.7
		c-1.1,1.5-2.2,3.4-3.4,5.8c-1.1,2.4-2.2,5.1-3.1,8.1c-0.6,2-1.1,4.1-1.4,6.2c-0.2,0.3-0.3,0.5-0.5,0.8h0.1l-0.2,0.2l-0.2,0.4
		c-0.1,0.1-0.2,0.2-0.2,0.3l-0.2,0.5l-0.4,0.5c0,0.1,0,0.1,0,0.1c0,0,0,0,0,0.1h0.1l-0.1,0.1l-0.1,0.3l-0.2,0.4
		c-0.8,1.6-1.5,2.7-2,3.3c-0.5,0.7-0.8,1-1,1s-0.3-0.2-0.3-0.5c0-0.5,0.1-1.3,0.4-2.4s0.6-2.2,0.9-3.5c0.3-1.3,0.6-2.5,0.9-3.6
		c0.3-1.2,0.5-2.1,0.6-2.7c0.5-1.9,0.9-3.5,1.3-4.8c0.4-1.3,0.7-2.4,1-3.2c0.3-0.8,0.5-1.5,0.7-1.9c0.1-0.4,0.2-0.8,0.2-1.1
		c0-0.1-0.1-0.2-0.2-0.4c-0.2-0.2-0.3-0.5-0.6-0.7c-0.2-0.3-0.5-0.5-0.9-0.7c-0.3-0.2-0.7-0.3-1.1-0.3c-0.6,0-1.5,1.5-2.6,4.5
		c-1.1,3-2.2,7.9-3.4,14.8v-0.1l-0.1,0.2v-0.2l-0.2,0.2l-0.1,0.2l0.2,0.2l-0.4,0.5l-0.1-0.3l0,0c-0.1,0.1-0.2,0.3-0.3,0.4
		c-0.2,0.3-0.4,0.5-0.5,0.8l-0.1,0.3l-0.1-0.1l-0.3,0.4c-0.1,0.1-0.2,0.2-0.2,0.3l-0.3,0.4l-0.3,0.2l-0.6,0.7l-0.4,0.4
		c-0.5,0.5-1.2,1.3-2.1,2.2c-0.8,0.9-1.6,1.3-2.3,1.3c-0.3,0-0.4-0.3-0.4-0.8c0-1,0.1-2.2,0.4-3.5c0.3-1.3,0.6-2.7,0.9-4
		c0.4-1.3,0.7-2.6,1.1-3.9c0.4-1.2,0.7-2.3,0.9-3.1c0.5-2,1-3.8,1.5-5.2c0.5-1.4,0.8-2.6,1.2-3.5c0.3-0.9,0.6-1.6,0.8-2.1
		c0.2-0.5,0.3-0.9,0.3-1.2c-0.3-0.5-0.6-0.9-0.9-1.1c-0.3-0.3-0.6-0.5-0.9-0.7c-0.3-0.2-0.7-0.3-1.1-0.3c-0.5,0-1.2,1.2-2.2,3.7
		c-1,2.5-2.1,6.5-3.2,11.9c-0.4,2-0.8,4.1-1.2,6.2c-0.4,2.1-0.5,4.3-0.5,6.6c0,0.2,0,0.6,0.1,1c0.1,0.4,0.3,0.8,0.5,1.2
		c0.3,0.4,0.6,0.7,1,1c0.4,0.3,0.9,0.5,1.6,0.5c0.9,0,1.7-0.2,2.4-0.7c0.7-0.5,1.3-1,1.9-1.6c0.5-0.6,1-1.3,1.4-1.9
		c0.4-0.6,0.7-1.2,1-1.6l0.6-0.9v-0.3c0-0.1,0-0.1,0.1,0c0.1,0,0.1,0,0.1,0l0.3-0.5l0.1-0.1c-0.1,0.4-0.1,0.7-0.1,1.1v2.4
		c0,0.6,0.1,1.2,0.2,1.7c0.1,0.5,0.4,1,0.8,1.4c0.4,0.4,0.9,0.6,1.7,0.6c0.9,0,1.7-0.3,2.3-1c0.7-0.7,1.2-1.4,1.7-2.3
		c0.4-0.8,0.8-1.7,1-2.5c0,0.1,0,0.2,0,0.4c0.1,0.9,0.2,1.8,0.5,2.7c0.3,0.8,0.8,1.5,1.4,2.1c0.7,0.6,1.6,0.9,2.8,0.9
		c0.8,0,1.4-0.2,2-0.5c0.5-0.3,1-0.7,1.4-1.1c0.4-0.4,0.7-0.8,1-1.3c0.3-0.4,0.5-0.7,0.7-1c-0.2,0.8-0.3,1.6-0.5,2.2
		c-0.2,0.6-0.4,1.4-0.7,2.2c-0.4,0-1.5-0.1-3.3-0.2c-1.8-0.1-3.8-0.2-6.2-0.2c-2.2,0-4.5,0.1-7,0.2c-2.4,0.1-4.6,0.5-6.7,1
		c-2,0.5-3.7,1.4-5,2.5c-1.3,1.1-2,2.6-2,4.5c0,2.3,0.7,4.1,2.1,5.4c1.4,1.3,3,2.4,4.7,3.1c1.8,0.7,3.5,1.2,5.2,1.4
		c1.7,0.2,2.9,0.4,3.6,0.4c2.8,0,5.2-0.5,7.2-1.5c2-1,3.7-2.2,5-3.7c1.4-1.5,2.5-3.1,3.4-4.9c0.9-1.7,1.6-3.3,2.1-4.8
		c0.4,0,0.8,0,1.2,0c0.4,0,0.8,0.1,1.2,0.1c0.2-0.1,0.5-0.1,0.8-0.1l1,0.2h0.7c0,0.1,0.1,0.1,0.3,0.2h0.4l-0.4-0.5h-0.3
		c0,0.1-0.1,0.1-0.3,0.1l-0.3-0.1l-0.2-0.2c0.3,0.1,0.6,0.1,0.9,0.1c0.3,0,0.6,0.1,0.9,0.2h-0.4l-0.2,0.3c0.4,0.1,0.7,0.1,1.1,0.1
		c0.4,0,0.7,0.1,1,0.1c-0.1,0-0.1,0-0.1-0.1h0.1l0.1,0.1h0.3c0.1,0.1,0.4,0.2,0.9,0.3c0.5,0.1,0.8,0.1,1,0.1h0.1l0.1,0.1h0.1
		c0.1,0,0.2,0,0.4,0c0.1,0,0.2,0,0.4,0h0.2l2.1,0.4c3.1,0.7,6,1.3,8.7,1.9c2.7,0.6,5.1,1.2,7.1,1.7c2,0.5,3.6,0.9,4.7,1.2
		c1.1,0.3,1.7,0.4,1.6,0.4c0.4,0,0.8-0.3,1.1-0.8c0.3-0.5,0.4-1.2,0.4-2c0-0.4-0.2-0.8-0.4-1.1C567.5,124,567.3,123.9,567.2,123.9z
		 M511.8,107.1c0-0.1,0-0.2,0.1-0.2L511.8,107.1z M513,119.8h0.8c-0.1,0-0.2,0-0.3,0C513.4,119.8,513.3,119.9,513,119.8l-0.8,0.1
		C512.5,119.8,512.8,119.8,513,119.8z M523,127.2c-1.5,1.9-3.3,3.2-5.5,3.8c-1.1,0.5-2.5,0.7-4.2,0.7c-1.2,0-2.5-0.1-3.9-0.3
		c-1.4-0.2-2.7-0.6-3.9-1c-1.2-0.5-2.2-1.1-3-1.9c-0.8-0.8-1.2-1.7-1.2-2.9c0-1.1,0.4-2,1.3-2.7c0.9-0.7,2-1.3,3.4-1.8l-0.4,0.1
		c-0.1,0.1-0.2,0.1-0.3,0.1c-0.1,0-0.1,0-0.2,0.1l-0.4,0.1c0.3-0.1,0.6-0.2,0.9-0.4c0.3-0.1,0.6-0.2,0.9-0.4l0.1,0.2
		c0.6-0.1,1.2-0.3,1.9-0.5c0.5-0.1,0.9-0.2,1.3-0.2c-0.1,0-0.2,0-0.2-0.1l0.2-0.1c0.4-0.1,0.7-0.1,1.1-0.1c0.4,0,0.8,0,1.2,0
		L511,120h0.2l-0.1,0.1c0.5-0.1,1.1-0.1,1.7-0.2c0.8-0.1,1.5-0.1,2.1-0.1h-0.1c0.4-0.1,0.8-0.1,1.3-0.1h5.4c0.9,0,1.6,0.1,2.2,0.2
		h-3.3c-0.8,0-1.3,0.1-1.5,0.2H518c-0.1,0-0.4,0-0.9,0c-0.4,0-0.7,0.1-0.7,0.2c0,0-0.1,0,0,0c0,0,0,0-0.1,0l0.2-0.1
		c-0.4,0.1-0.7,0.1-1,0.1c-0.3,0-0.6,0.1-0.9,0.1l-0.2,0.1l0.1-0.1h-0.1c-0.1,0-0.4,0-0.8,0c-0.4,0-0.7,0.1-0.8,0.2v-0.1
		c-0.2,0.1-0.4,0.1-0.8,0.2c-0.3,0.1-0.6,0.1-0.7,0.1l-0.2,0.1h0.1l-0.2,0.1h0.1l-0.4,0.3l-0.1,0c0.2,0,0.4-0.1,0.7-0.1
		c0.4,0,0.8,0,1.3,0l0.3-0.1h1l0.7-0.1h1.1v-0.1l0.2,0.1l0.5-0.1h2.8l-0.1-0.2h2.2c0.1-0.1,0.1-0.1,0.2,0c0.1,0,0.1,0,0.2,0h0.6
		l0.4,0.1c0.7,0,1.3,0,2,0c0.7,0,1.4,0,2,0C525.8,123.2,524.5,125.3,523,127.2z M518.9,120.3c-0.1,0.1-0.1,0.1-0.2,0.1v-0.1H518.9z
		 M516.6,120.5h-0.2H516.6l-0.1-0.2h0.2C516.7,120.4,516.6,120.4,516.6,120.5L516.6,120.5z M516.5,120.6h0.2l0.1,0.1l-0.4,0.1
		L516.5,120.6z M513.8,120.6c-0.1,0-0.2,0-0.2-0.1L513.8,120.6L513.8,120.6z M526.8,120.6H526l0.5-0.1L526.8,120.6L526.8,120.6z
		 M531.8,120.7c-0.2,0-0.3-0.1-0.4-0.2h0.5L531.8,120.7L531.8,120.7z M534,120.9l-0.3-0.1c-0.2,0-0.3,0-0.4-0.1
		c-0.1,0-0.1,0-0.1-0.1v-0.1c0.1,0.1,0.3,0.1,0.4,0.1c0.1,0,0.3,0,0.4,0.1L534,120.9z M534.9,121l-0.5,0.1l0.1-0.3
		c0.4,0,0.7,0,0.8,0.1l0.1,0.1H534.9z M509.2,121.5l0.1-0.1L509.2,121.5L509.2,121.5z M509.3,121.4L509.3,121.4l0.3,0v-0.2
		L509.3,121.4z M510,121.1C510,121.1,510,121.1,510,121.1L510,121.1L510,121.1z M510.1,121.1C510.1,121.2,510,121.2,510.1,121.1
		l-0.4,0.1h0.1c0,0.1,0,0.1,0,0.1c0,0,0,0,0,0.1c-0.1,0-0.1,0-0.2,0v0.1h-0.1l0.1,0.1c0.1,0,0.1,0,0.1,0c0,0,0.1,0,0.2,0h0.2
		l0.1-0.2L510.1,121.1c0.1,0,0.1,0,0.2,0l0.1-0.1C510.2,121,510.1,121.1,510.1,121.1z M511.1,120.1L511.1,120.1c-0.1,0-0.2,0-0.4,0
		H511.1z M510.6,121.4l0.1-0.1c-0.1,0-0.3,0-0.4,0.1H510.6z M510.5,120.2c-0.2,0-0.4,0-0.6,0c0,0,0,0,0,0
		C510.2,120.2,510.3,120.2,510.5,120.2z M542.5,117.9L542.5,117.9C542.4,117.9,542.4,117.9,542.5,117.9L542.5,117.9z M543,117.8
		L543,117.8C543,117.7,543,117.8,543,117.8L543,117.8z M542.7,117.7c-0.1,0-0.1,0-0.2,0h-0.2l0.1,0.1c0.2,0,0.3,0,0.5-0.1l-0.1-0.1
		C542.8,117.8,542.8,117.8,542.7,117.7z M538.9,116.5c0.6,1,1.5,1.4,2.8,1.4c0.2,0,0.3,0,0.4-0.1h-0.2l-0.1-0.1v-0.1
		c0.2,0,0.3,0,0.4,0c0.1,0,0.3,0,0.5,0h0.1c0.1-0.1,0.2-0.1,0.3-0.1c0.1,0,0.2-0.1,0.3-0.2c0,0.1-0.1,0.1-0.2,0.3l-0.2,0.2
		c0.1-0.1,0.3-0.1,0.4-0.2c0.1,0,0.1-0.1,0.1-0.1h0.1l-0.1,0.1l0.1,0.1l0.1-0.1c0,0.1-0.1,0.2-0.2,0.2c-0.1,0-0.1,0,0-0.1
		c0-0.1,0-0.1,0-0.1l-0.1,0.3h0.3c0.1,0,0.1,0,0.2-0.1v-0.5c0,0,0,0,0,0c0.1-0.1,0.1-0.1,0-0.1l0.2-0.1l0.1-0.1l0.1-0.1v0.1l0.1-0.1
		l-0.1,0.2l0.1-0.1l-0.1,0.4l-0.2,0.2c0.1-0.1,0.3-0.3,0.5-0.4c0.2-0.2,0.4-0.3,0.7-0.4h-0.1l0.3-0.1l0.4-0.4l0.3-0.4l0.5-0.4v-0.1
		l0.1-0.2l0.2-0.2c0.2-0.2,0.3-0.4,0.5-0.6c0.1-0.2,0.3-0.4,0.4-0.7h-0.1l0.5-0.7l0.1-0.1v-0.2l0.2-0.2v-0.3l0.1-0.1l0.1-0.2
		l0.1-0.2c1-1.6,1.8-3.2,2.4-4.9c0.6-1.7,1.1-2.9,1.4-3.6c1.4-0.2,2.5-0.7,3.5-1.7c0.9-1,1.5-1.9,1.6-2.7l0.3-0.8l-0.1-0.1
		c-0.1,0-0.1,0-0.1-0.1c0.1-0.1,0.1-0.1,0.3-0.1l-0.1-0.5l0.1-0.2l-0.1-0.2c0-0.1,0-0.1,0.1-0.1l0.1-0.1l-0.1-0.6l0.1-0.1
		c0-0.1,0-0.2-0.1-0.2c-0.1,0-0.1-0.1-0.1-0.1c0-0.1,0-0.2,0.1-0.2c0.1,0,0.1-0.1,0.1-0.1l-0.1-0.1c-0.1,0-0.1,0-0.1-0.1l0.1-0.2
		c-0.1-0.2-0.1-0.5-0.1-0.7c0-0.2-0.1-0.3-0.2-0.3c-0.2,0-0.4,0.1-0.5,0.3l0.1,0.2c-0.1,0.1-0.1,0.1-0.1,0.2
		c-0.1,0.1-0.1,0.2-0.1,0.4l-0.1,0.4l0.1,0.2l-0.2,0.4v0.5c0,0.1,0,0.2-0.1,0.1c-0.1,0-0.1,0-0.1,0l-0.2,0.5l-0.1,0.4l0.1-0.5
		c0-0.1,0-0.1,0-0.1c0,0,0,0,0-0.1l-0.1-0.1l-0.3-0.2v-0.2c0,0.2-0.1,0.6-0.2,1.1l0.1,0.1l-0.2,0.2l-0.1,0.3l-0.1,0.6l-0.1,0.1
		l0.1,0.1l-0.1,0.1v0.2h-0.1c-0.2,0.4-0.5,0.6-0.8,0.8c-0.4,0.2-0.7,0.3-1.1,0.5c0.4-1.9,0.6-3.6,0.6-5.3c0-2.9-0.4-5.2-1.1-7.1
		c-0.7-1.9-2-2.8-3.9-2.8c-0.4,0-0.8,0.1-1,0.3c-0.3,0.2-0.5,0.4-0.6,0.5c-0.4-0.9-0.9-1.3-1.4-1.3c-0.3,0-0.6,0.1-0.9,0.2
		c-0.3,0.1-0.5,0.2-0.5,0.3h0.1c-0.5,0.3-1.1,1.2-2,2.6c-0.8,1.4-1.7,3.2-2.5,5.4c-0.8,2.2-1.6,4.6-2.2,7.4
		c-0.6,2.8-0.9,5.6-0.9,8.5c0-0.1,0,0.4,0,1.3c0,0.9,0.1,2,0.4,3.1C537.8,114.5,538.3,115.6,538.9,116.5z M543.8,117.4
		C543.8,117.4,543.8,117.4,543.8,117.4C543.8,117.3,543.8,117.4,543.8,117.4C543.7,117.4,543.8,117.4,543.8,117.4l-0.1,0.1
		C543.7,117.4,543.7,117.4,543.8,117.4C543.7,117.4,543.7,117.4,543.8,117.4L543.8,117.4C543.8,117.3,543.8,117.3,543.8,117.4
		C543.8,117.3,543.8,117.3,543.8,117.4L543.8,117.4L543.8,117.4z M545.2,115.9c0.1,0,0.2,0,0.2,0.1L545.2,115.9z M545.5,115.5
		L545.5,115.5L545.5,115.5L545.5,115.5c-0.1,0-0.2,0.1-0.3,0.3c-0.2,0.2-0.2,0.4-0.2,0.5l-0.1-0.1l-0.3,0.3v-0.2
		c0.1,0,0.2-0.2,0.5-0.5c0.3-0.3,0.6-0.6,0.8-0.9C545.9,115,545.8,115.2,545.5,115.5z M546.2,114.7L546.2,114.7c0-0.1,0-0.1,0-0.2
		V114.7z M546.4,114.8L546.4,114.8L546.4,114.8L546.4,114.8z M546.7,114.8l-0.1,0.2L546.7,114.8L546.7,114.8L546.7,114.8
		L546.7,114.8L546.7,114.8z M548.4,90.2c0.1-0.8,0.2-1.2,0.4-1.2c0.2,0.2,0.4,1.1,0.5,2.6c0.2,1.6,0.3,3.4,0.3,5.4v0.9
		c0,0.3,0,0.6-0.1,0.9c-0.7-1-1-2.2-1.1-3.6c-0.1-1.4-0.1-2.3-0.1-2.8C548.2,91.7,548.3,90.9,548.4,90.2z M542.1,101.3
		c0.8-2.8,1.5-4.9,2-6.3c0,0.4,0.1,0.9,0.2,1.6c0.1,0.7,0.4,1.4,0.7,2.2c0.3,0.8,0.8,1.5,1.3,2.2c0.5,0.7,1.2,1.2,2,1.7v0.2
		l-0.2,0.4l-0.1,0.6l-0.3,0.8v0.2h0.1l-0.1,0.2v-0.1l-0.1,0.5l-0.1,0.3l0.3-0.2l0.2,0.1l-0.1,0.3l-0.3-0.2l-0.5,2.2v0.1
		c-0.3,0.8-0.6,1.6-1,2.4c-0.4,0.8-0.8,1.6-1.2,2.2c-0.4,0.7-0.9,1.2-1.3,1.7c-0.5,0.4-0.9,0.6-1.3,0.6c-0.3,0-0.5-0.1-0.7-0.5
		c-0.2-0.3-0.3-0.7-0.5-1.1c-0.1-0.4-0.2-0.9-0.2-1.4c0-0.5,0-1,0-1.4C540.9,107.2,541.3,104.1,542.1,101.3z M547.7,105.7
		L547.7,105.7L547.7,105.7L547.7,105.7z M557.1,113.4c0,1.1,0.7,1.9,1.8,1.9c1.1,0,1.8-0.8,1.8-1.9c0-1.1-0.7-1.9-1.8-1.9
		C557.8,111.6,557.1,112.3,557.1,113.4z M576.2,93.7h-2.6v8.7h-0.1c-0.7-1.2-2.2-2.2-4.4-2.2c-3.5,0-6.5,3-6.5,7.8
		c0,4.4,2.7,7.4,6.2,7.4c2.4,0,4.1-1.2,4.9-2.8h0.1l0.1,2.5h2.4c-0.1-1-0.1-2.5-0.1-3.7V93.7z M573.6,108.9c0,0.4,0,0.8-0.1,1.1
		c-0.5,2-2.1,3.1-3.9,3.1c-2.8,0-4.3-2.4-4.3-5.4c0-3.2,1.6-5.6,4.3-5.6c2,0,3.4,1.4,3.8,3.1c0.1,0.3,0.1,0.8,0.1,1.1V108.9z
		 M586.4,100.2c-4.2,0-6.8,3.4-6.8,7.8s2.7,7.3,7.1,7.3c2.3,0,3.9-0.5,4.8-0.9l-0.5-1.9c-1,0.4-2.1,0.8-4,0.8c-2.6,0-4.9-1.5-5-5
		h10.2c0-0.3,0.1-0.7,0.1-1.2C592.4,104.3,591.2,100.2,586.4,100.2z M582.2,106.3c0.2-1.8,1.4-4.3,4-4.3c3,0,3.7,2.6,3.7,4.3H582.2z
		 M600.4,106.6c-1.9-0.7-2.8-1.3-2.8-2.5c0-1.1,0.9-2,2.4-2c1.4,0,2.4,0.5,3,0.8l0.7-1.9c-0.8-0.5-2.1-0.9-3.6-0.9
		c-3.1,0-5,1.9-5,4.3c0,1.7,1.2,3.2,3.8,4.1c1.9,0.7,2.7,1.4,2.7,2.7c0,1.2-0.9,2.2-2.8,2.2c-1.3,0-2.7-0.5-3.5-1l-0.7,2
		c1,0.6,2.5,1,4.1,1c3.4,0,5.4-1.8,5.4-4.3C604.2,108.8,602.9,107.5,600.4,106.6z M609,94.8c-1,0-1.7,0.7-1.7,1.6
		c0,0.9,0.7,1.6,1.6,1.6c1,0,1.7-0.7,1.7-1.6C610.6,95.5,610,94.8,609,94.8z M607.7,115h2.6v-14.5h-2.6V115z M624.8,102.7
		L624.8,102.7c-0.7-1.2-2.1-2.5-4.6-2.5c-3.3,0-6.5,2.8-6.5,7.7c0,4,2.6,7.1,6.2,7.1c2.2,0,3.8-1.1,4.6-2.4h0.1v1.6
		c0,3.7-2,5.1-4.7,5.1c-1.8,0-3.3-0.5-4.3-1.1l-0.7,2c1.2,0.8,3.1,1.2,4.8,1.2c1.8,0,3.9-0.4,5.3-1.7c1.4-1.3,2.1-3.3,2.1-6.6v-8.4
		c0-1.8,0.1-2.9,0.1-4h-2.3L624.8,102.7z M624.5,108.8c0,0.4-0.1,1-0.2,1.4c-0.6,1.7-2,2.7-3.7,2.7c-2.8,0-4.3-2.4-4.3-5.2
		c0-3.4,1.8-5.5,4.3-5.5c1.9,0,3.2,1.3,3.7,2.8c0.1,0.4,0.1,0.8,0.1,1.2V108.8z M638.9,100.2c-2.4,0-4.1,1.3-4.8,2.7h-0.1l-0.2-2.4
		h-2.3c0.1,1.2,0.1,2.4,0.1,3.9V115h2.6v-8.7c0-0.5,0.1-0.9,0.2-1.2c0.5-1.5,1.8-2.7,3.5-2.7c2.5,0,3.4,1.9,3.4,4.3v8.4h2.6v-8.7
		C644,101.4,640.9,100.2,638.9,100.2z"/>
</g>
<g>
	<g>
		<path class="st1" d="M23.3,70.7C23.3,70.7,23.3,70.7,23.3,70.7L23.3,70.7L23.3,70.7z M40.2,78.8l0.2,0.4v-0.2h0.1l-0.1-0.2
			L40.2,78.8C40.3,78.8,40.2,78.8,40.2,78.8z M23.4,70.7C23.4,70.7,23.4,70.7,23.4,70.7l0,0.3v-0.1h0.1L23.4,70.7L23.4,70.7z
			 M23.2,70.1L23.2,70.1C23.3,70.1,23.2,70,23.2,70.1L23.2,70.1z M23.3,70.1c0,0,0,0.1,0,0.1v0.1l-0.1-0.1l0.1,0.2v-0.1
			c0,0.1,0,0.2,0.1,0.2v-0.2c0,0.1,0,0.1,0,0.1c0,0,0,0,0,0.1v0.2c0.1,0,0.1-0.1,0.1-0.3v-0.2h-0.2L23.3,70.1z M23.6,70l0.1-0.2
			L23.6,70C23.6,69.9,23.6,69.9,23.6,70L23.6,70z M27.9,50.9L27.8,51v0.2c0,0.1,0,0.2,0.1,0.2c0,0,0,0,0,0c0,0,0,0,0,0.1v0.1
			c0-0.1,0-0.1-0.1-0.1l0.1,0.5v-0.2h0.1l0-0.2h0v-0.1c0-0.1,0-0.2,0.1-0.3l0.1-0.2L27.9,50.9L27.9,50.9z M28.1,49.6L28.1,49.6
			L28.1,49.6L28.1,49.6z M46,59.1c0.3-0.2,0.4-0.4,0.4-0.8c0-1.6-0.2-2.7-0.5-3.4c-0.3-0.7-0.7-1.1-0.9-1.2h-0.1
			c-0.2,0.1-0.4,0.1-0.4,0.1c-0.1,0-0.3,0.1-0.8,0.1c0.6-2.9,1.3-5.8,2.1-8.9c0.7-3,1.5-6,2.3-8.9c0.8-2.9,1.6-5.7,2.4-8.4
			c0.8-2.6,1.6-5,2.4-7.2v-0.2c0-0.1-0.1-0.2-0.4-0.3c-0.3-0.2-0.7-0.3-1.1-0.5c-0.5-0.2-1-0.3-1.5-0.4c-0.5-0.1-1.1-0.2-1.6-0.2
			c-0.4,0-0.7,0.1-0.8,0.4c-0.3,0.8-0.8,2.3-1.4,4.6c-0.6,2.3-1.2,5.1-1.8,8.3c-0.6,3.2-1.3,6.8-2,10.6c-0.7,3.8-1.3,7.6-1.8,11.4
			c-1.5,0.2-3.2,0.3-5.2,0.3c-2,0.1-4.1,0.2-6.4,0.5c-0.8-0.6-1.6-1.1-2.3-1.6c0.4-1.6,0.8-3.3,1.2-4.9c0.4-1.6,0.8-3.1,1.1-4.7
			c-0.1,0.6-0.2,1.1-0.4,1.7c-0.2,0.6-0.2,1.3-0.2,2.1v0.2h-0.1c0,0.4-0.1,0.8-0.2,1.2c0,0.1,0,0.2,0,0.2c0,0.1,0,0.1,0,0.2
			l-0.1,0.1l0.1,0.2v0.1l-0.1-0.3l0,0v-0.1L28,49.9l-0.1,0.5v0.2l-0.1,0.2c0,0.1,0,0.1,0.1,0.1l0.2,0.2l0.1-0.3
			c0.1-0.3,0.1-0.7,0.2-1.2c0.1-0.5,0.2-0.9,0.3-1.4h0.1v-0.2l0.1-0.2h-0.1l0.1-0.5H29v-0.1c0-0.1,0-0.2,0-0.3c0-0.1,0-0.1,0-0.2
			l0.2-0.8l0.2-0.9l0.2-0.2c0-0.1,0-0.2-0.1-0.2l0.1-0.2v0.1l0.1-0.6l0.1-0.2c0.1-0.5,0.2-1,0.3-1.4s0.2-1,0.3-1.5v0.1l0.1-0.2
			l0.2-1.4v-0.2l0.1-0.2l0.1-0.5c0-0.1,0-0.1,0-0.2c0-0.1,0-0.2,0-0.2V38l0.1-0.3c0-0.1,0-0.1,0-0.2c0-0.1,0-0.1,0-0.2l0.1-0.3
			c0.6-2.1,1.1-4.2,1.6-6.4c0.5-2.2,1-4.4,1.7-6.5c0.1-0.5,0.2-1,0.3-1.3c0.1-0.3,0.1-0.7,0.2-1.1c0.1-0.4,0.1-0.7,0.1-1
			c0-0.2-0.1-0.5-0.4-0.9c-0.2-0.4-0.7-0.6-1.4-0.6c-0.9,0-1.7,0.4-2.6,1.2c-0.9,0.8-1.8,1.8-2.7,3c-0.9,1.2-1.8,2.4-2.6,3.6
			c-0.9,1.2-1.7,2.2-2.5,3.1C20.4,32.3,18,34,15.3,35c-2.6,1-5.1,1.6-7.4,1.6c-0.6,0-1,0-1.3-0.1c-0.3,0-0.5,0.4-0.5,1.2v2.6
			l-0.2,0.1l0.2,0.1c0,0.5,0.1,0.8,0.2,1c0.1,0.2,0.3,0.4,0.5,0.4c0.2,0.1,0.4,0.1,0.5,0.1c0.2,0,0.3,0,0.3,0c0.8,0,1.9-0.1,3.4-0.3
			c1.4-0.2,3.1-0.7,4.8-1.4c1.8-0.7,3.6-1.8,5.6-3.3c2-1.4,3.9-3.3,5.8-5.7c-0.5,2.9-1.1,6.2-1.6,9.9c-0.6,3.7-1.1,7.3-1.6,10.9
			c-1.1-0.5-2.3-1-3.7-1.6c-1.4-0.6-2.8-0.8-4.1-0.8c-1,0-1.9,0.3-2.9,0.9c-1,0.6-1.4,1.6-1.4,2.9c0,0.3,0.1,0.7,0.2,1.2
			c0.1,0.5,0.2,0.8,0.3,0.9h-0.1c0.3,0.6,0.6,1.1,1.1,1.4c0.5,0.3,0.9,0.6,1.4,0.9c0.5,0.2,1,0.4,1.6,0.6c0.5,0.1,1,0.3,1.5,0.4
			c0-0.1,0-0.1,0.1-0.1l0.1,0.1h-0.1c0.2,0,0.4,0,0.7,0.1c0.2,0.1,0.5,0.1,0.8,0.2c0.1,0,0.2,0,0.2-0.1c0.3,0.1,0.6,0.2,0.9,0.2
			c0.3,0,0.7,0,0.9,0.1h0.6l-0.1,0.1h0.5c0.1,0,0.3,0,0.6,0.1c-0.3,2.3-0.5,4.3-0.7,6.1c-0.2,1.7-0.3,3-0.3,3.9c0,0.3,0,0.5,0,0.6
			c0,0.2,0.2,0.2,0.6,0.2c0.1,0,0.2,0,0.2,0c0,0,0.1,0,0.1-0.2c0-0.1,0.1-0.4,0.2-0.8c0.1-0.3,0.2-0.8,0.3-1.5l0.1,0.2
			c-0.1,0.1-0.1,0.2-0.1,0.4c0,0.2,0,0.3-0.1,0.5c0,0.1,0,0.2,0,0.2c0,0,0,0.1,0,0.2v0.1l0.1,0.2v0.1l-0.1-0.2v0.2l-0.1-0.1l0.1,0.2
			l-0.1,0.2V70l0.2,0.2l0.2,0.1l0.2,0.1L23.6,70l0,0.1c0,0,0-0.1,0-0.1l0,0l0,0c0-0.2,0.1-0.4,0.1-0.7c0-0.3,0.1-0.6,0.2-1h0.2
			l-0.2-0.3L23.8,68l0.2-0.4c0-0.1,0-0.2,0-0.2c0-0.1,0-0.1,0-0.2l0.1-0.6l0.2-0.7c0-0.1,0-0.1-0.1-0.2l0.1-0.2l0.1-0.3l0.2-2.2
			l0.2-1.1l0.1-0.5l-0.1-0.1c0-0.1,0-0.3,0.1-0.5c0.1-0.2,0.1-0.3,0.2-0.4v-0.1c0-0.1,0-0.2,0.1-0.4c0.1-0.1,0.1-0.3,0.1-0.4
			c1,0.1,1.9,0.2,2.9,0.2s1.9,0,2.8,0.1c1.4,1.2,2.6,2.6,3.6,4c1,1.4,1.8,2.8,2.4,4.2s1.1,2.6,1.4,3.9c0.3,1.2,0.4,2.2,0.4,2.9v1.2
			c0,0.4,0,0.8,0.1,1c0.1,0.2,0.3,0.4,0.6,0.4c0.1,0,0.2-0.1,0.3-0.2c0.1-0.1,0.1-0.1,0.1-0.2c-0.1,0-0.1,0-0.1-0.1
			c0-0.1,0-0.2,0-0.3c0-0.1,0-0.2,0-0.4l0.1,0.1v0.5c0,0.1,0,0.2,0.1,0.2c0.1,0.1,0.1,0.1,0.1,0.2H40c0,0.1,0,0.2,0,0.2
			c0,0,0,0.1,0,0.2L40,77.3l0.1,0.3v0.6c0,0.1,0,0.1,0.1,0.1v0.1c-0.1,0-0.1,0-0.1-0.1l0.1,0.3v-0.1l0.1,0.2h0.1c0,0.1,0,0.1,0,0.2
			l0.1-0.2v0.2c0-0.1,0-0.2,0.1-0.3l-0.1-0.2l0.2,0.1l-0.2-0.5V77h0.1l-0.1-0.2c0-0.2,0-0.3,0-0.5c0-0.2,0-0.4,0-0.6l0.1,0.1v-0.4h0
			l0-0.5v-0.5l0.1-0.6l0.1-1V72l0.2-2.8v-0.2l0.2-1.3v-0.2l0.1-0.5c-0.1,0-0.1-0.1-0.1-0.2c0.2-1.1,0.4-2.3,0.6-3.5
			c0.2-1.2,0.5-2.5,0.7-3.8h1.2c0.5,0,0.9,0,1.3-0.1C45.4,59.3,45.8,59.2,46,59.1z M28.5,46.8l0.1-0.2l0.1,0.1L28.5,46.8z M30,40
			L30,40v0.2V40z M29.7,41L29.7,41L29.7,41L29.7,41z M29.4,43.5l0.1-0.2L29.4,43.5L29.4,43.5z M29.4,43.7l0.1,0.2l0.1-0.4v0.1
			l-0.1,0.3L29.4,43.7L29.4,43.7z M29.3,43.6v0.2V43.6C29.2,43.6,29.3,43.6,29.3,43.6z M29.1,43.4v0.2h0.1c0,0.1,0,0.1,0,0.1
			c0,0,0,0,0,0.1L29,43.7C29,43.6,29.1,43.5,29.1,43.4z M12.6,55.9c-0.1-0.1-0.2-0.2-0.2-0.2l0.3,0.4L12.6,55.9z M13.8,57.3
			c-0.1-0.1-0.1-0.1-0.1-0.2h0.1V57.3z M13.9,57.2l-0.2-0.2L13.9,57.2L13.9,57.2L13.9,57.2z M18.2,58.7L18,58.7L18.2,58.7L18.2,58.7
			L18.2,58.7z M18.4,58.7L18.4,58.7l0.2-0.1L18.4,58.7z M21.3,54.8c-0.6-0.1-1.1-0.1-1.7-0.2c-0.3,0-0.7,0-1.1-0.1
			c-0.4-0.1-0.8-0.2-1.2-0.3c-0.4-0.1-0.7-0.3-1-0.4c-0.3-0.1-0.4-0.2-0.4-0.3c0-0.2,0.1-0.3,0.3-0.3c1.1,0,2.3,0.2,3.5,0.6
			c1.2,0.4,2.4,0.8,3.4,1.2C22.5,54.9,21.9,54.9,21.3,54.8z M23.9,65.1L23.9,65.1C23.9,65,23.9,65,23.9,65.1L23.9,65.1z M24,65.1
			L24,65.1L24,65.1L24,65.1z M24,64.9L24,64.9L24,64.9L24,64.9z M39.3,64.5c-0.1,1.6-0.3,3-0.4,4.4c-0.7-1.3-1.4-2.8-2-4.3
			c-0.6-1.6-1.7-3.2-3.1-4.8c1.1,0,2.1,0,3.1,0c1,0,1.9-0.1,2.9-0.1C39.6,61.3,39.5,63,39.3,64.5z M40.1,74.4
			C40.1,74.4,40.2,74.4,40.1,74.4L40.1,74.4L40.1,74.4z M39.9,75.5l0.3,0.5v0l-0.1-0.1L39.9,75.5z M40.3,78.5c0,0,0,0.1,0.1,0.1
			C40.3,78.6,40.3,78.6,40.3,78.5z M40.3,78.3l-0.2-0.6L40.3,78.3L40.3,78.3z M40.3,76.4L40.3,76.4l0.1,0.2L40.3,76.4z M56.7,57.5
			l-0.1,0.2C56.6,57.5,56.7,57.5,56.7,57.5L56.7,57.5z M55.9,68.9c-0.2,0-0.3,0-0.5,0c0,0,0,0,0,0C55.6,69,55.8,68.9,55.9,68.9z
			 M54.7,70.1L54.7,70.1L54.7,70.1L54.7,70.1z M106.5,72.2c-0.3-0.2-1.5-0.5-3.6-1c-2.1-0.5-4.6-1-7.6-1.5c-3-0.5-6.3-1.1-9.8-1.6
			c-3.6-0.5-6.9-0.9-10.2-1.2c0.9-2.9,1.5-5.5,1.7-7.5c0.2-2.1,0.5-4,0.9-5.8c0.4-3.2,0.7-5.7,0.8-7.5c0.2-1.8,0.3-3.4,0.3-4.6
			c0-0.6-0.1-1.2-0.4-1.6c-0.2-0.5-0.7-0.7-1.4-0.7c-0.4,0-0.8,0.1-1,0.4c-0.2,0.3-0.4,0.6-0.5,1c-0.2,0.4-0.3,0.9-0.3,1.4
			c-0.1,0.6-0.3,2-0.5,4.2c-0.2,2.2-0.6,5-1,8.4v0.2l-0.2,0.3l-0.6,1.6c-0.3,0.6-0.7,1.4-1.2,2.1c-0.5,0.8-0.9,1.5-1.4,2.2
			c-0.5,0.7-1,1.2-1.5,1.7c-0.5,0.5-1,0.7-1.3,0.7c-0.6,0-1-0.8-1-2.4c0-1.9,0.3-3.8,0.9-5.7c0.6-1.9,1.1-3.6,1.6-5
			c1.1-2.8,2-5,2.8-6.5c0.8-1.5,1.5-2.6,2-3.4c0.5-0.7,0.9-1.3,1.2-1.6c0.3-0.3,0.4-0.7,0.4-1.1c0-0.8-0.3-1.4-0.8-1.7
			c-0.5-0.3-0.9-0.5-1.1-0.5c-0.4,0-0.6,0.1-0.6,0.2h0.1c-0.5,0.3-1.2,1.1-2.2,2.4c-1,1.3-2,3-3,5.1c-1,2.1-2,4.5-2.8,7.2
			c-0.6,1.8-1,3.6-1.3,5.5c-0.1,0.2-0.3,0.5-0.4,0.7h0.1l-0.2,0.2l-0.2,0.3c-0.1,0.1-0.2,0.2-0.2,0.2L63,57.9l-0.3,0.5
			c0,0.1,0,0.1,0,0.1c0,0,0,0,0,0.1h0.1l-0.1,0.1l-0.1,0.2l-0.2,0.4c-0.8,1.4-1.3,2.4-1.8,3c-0.4,0.6-0.7,0.9-0.9,0.9
			s-0.2-0.2-0.2-0.5c0-0.5,0.1-1.2,0.4-2.2c0.2-1,0.5-2,0.8-3.1c0.3-1.1,0.6-2.2,0.8-3.3c0.3-1,0.5-1.9,0.6-2.4
			c0.4-1.7,0.8-3.1,1.2-4.3c0.3-1.2,0.7-2.1,0.9-2.9c0.3-0.7,0.5-1.3,0.6-1.7c0.1-0.4,0.2-0.7,0.2-1c0-0.1-0.1-0.2-0.2-0.4
			c-0.1-0.2-0.3-0.4-0.5-0.6c-0.2-0.2-0.5-0.5-0.8-0.6c-0.3-0.2-0.6-0.3-1-0.3c-0.5,0-1.3,1.3-2.3,4c-1,2.7-2,7.1-3,13.2v-0.1
			l-0.1,0.2v-0.2l-0.2,0.2l-0.1,0.2l0.2,0.2l-0.3,0.5l-0.1-0.2l0,0c-0.1,0.1-0.2,0.2-0.2,0.4c-0.2,0.2-0.3,0.5-0.5,0.7l-0.1,0.2
			l-0.1-0.1l-0.2,0.3c-0.1,0.1-0.2,0.2-0.2,0.2l-0.2,0.4L54.8,60l-0.6,0.6l-0.3,0.3c-0.5,0.5-1.1,1.1-1.8,1.9
			C51.3,63.6,50.6,64,50,64c-0.3,0-0.4-0.2-0.4-0.7c0-0.9,0.1-2,0.4-3.1c0.2-1.2,0.5-2.4,0.8-3.6c0.3-1.2,0.6-2.4,1-3.5
			c0.3-1.1,0.6-2,0.8-2.8c0.5-1.8,0.9-3.4,1.3-4.6c0.4-1.3,0.7-2.3,1-3.1c0.3-0.8,0.5-1.4,0.7-1.9c0.2-0.5,0.2-0.8,0.2-1.1
			c-0.3-0.4-0.5-0.8-0.8-1s-0.5-0.5-0.8-0.6c-0.3-0.2-0.6-0.3-1-0.3c-0.4,0-1.1,1.1-2,3.3c-0.9,2.2-1.9,5.8-2.9,10.6
			c-0.4,1.8-0.7,3.7-1,5.5c-0.3,1.9-0.5,3.8-0.5,5.9c0,0.2,0,0.5,0.1,0.9c0.1,0.4,0.2,0.7,0.5,1.1c0.2,0.3,0.5,0.7,0.9,0.9
			c0.3,0.3,0.8,0.4,1.4,0.4c0.8,0,1.5-0.2,2.2-0.6s1.2-0.9,1.7-1.4c0.5-0.6,0.9-1.1,1.2-1.7c0.3-0.6,0.7-1,0.9-1.4l0.6-0.8v-0.2
			c0-0.1,0-0.1,0.1,0c0.1,0,0.1,0,0.1,0l0.2-0.5l0.1-0.1c-0.1,0.3-0.1,0.6-0.1,1v2.2c0,0.5,0.1,1,0.2,1.5c0.1,0.5,0.4,0.9,0.7,1.2
			c0.3,0.3,0.8,0.5,1.5,0.5c0.8,0,1.5-0.3,2.1-0.9c0.6-0.6,1.1-1.3,1.5-2.1c0.4-0.8,0.7-1.5,0.9-2.2c0,0.1,0,0.2,0,0.3
			c0.1,0.8,0.2,1.6,0.5,2.4c0.3,0.7,0.7,1.4,1.3,1.9c0.6,0.5,1.4,0.8,2.5,0.8c0.7,0,1.3-0.1,1.8-0.4c0.5-0.3,0.9-0.6,1.2-1
			c0.3-0.4,0.6-0.7,0.9-1.1c0.2-0.4,0.4-0.7,0.6-0.9c-0.2,0.8-0.3,1.4-0.4,2c-0.1,0.6-0.3,1.2-0.6,2c-0.4,0-1.4-0.1-2.9-0.2
			c-1.6-0.1-3.4-0.2-5.5-0.2c-2,0-4.1,0.1-6.2,0.2c-2.2,0.1-4.1,0.4-5.9,0.9c-1.8,0.5-3.3,1.2-4.5,2.2c-1.2,1-1.8,2.3-1.8,4.1
			c0,2,0.6,3.7,1.8,4.9c1.2,1.2,2.6,2.1,4.2,2.8c1.6,0.6,3.1,1.1,4.7,1.3c1.5,0.2,2.6,0.3,3.3,0.3c2.5,0,4.7-0.4,6.4-1.3
			s3.3-2,4.5-3.3c1.2-1.3,2.2-2.8,3-4.3c0.8-1.6,1.4-3,1.9-4.3c0.4,0,0.7,0,1.1,0c0.3,0,0.7,0.1,1.1,0.1c0.2-0.1,0.4-0.1,0.7-0.1
			l0.9,0.2h0.6c0,0.1,0.1,0.1,0.2,0.2h0.3L79,69.7h-0.2c0,0.1-0.1,0.1-0.2,0.1l-0.2-0.1l-0.2-0.2c0.3,0.1,0.5,0.1,0.8,0.1
			c0.3,0,0.6,0.1,0.8,0.2h-0.3l-0.2,0.2c0.3,0.1,0.7,0.1,1,0.1c0.3,0,0.7,0.1,0.9,0.1c-0.1,0-0.1,0-0.1-0.1h0.1l0.1,0.1h0.2
			c0.1,0.1,0.4,0.2,0.8,0.2c0.4,0.1,0.7,0.1,0.9,0.1h0.1l0.1,0.1h0.1c0.1,0,0.2,0,0.3,0c0.1,0,0.2,0,0.3,0h0.2l1.8,0.3
			c2.7,0.6,5.3,1.2,7.7,1.7c2.4,0.6,4.5,1.1,6.3,1.5c1.8,0.4,3.2,0.8,4.2,1c1,0.3,1.5,0.4,1.4,0.4c0.4,0,0.7-0.2,1-0.7
			c0.3-0.5,0.4-1.1,0.4-1.8c0-0.4-0.1-0.7-0.4-1C106.7,72.3,106.6,72.2,106.5,72.2z M57.1,57.2c0-0.1,0-0.2,0.1-0.2L57.1,57.2z
			 M58.2,68.5h0.7c-0.1,0-0.2,0-0.3,0C58.6,68.6,58.4,68.6,58.2,68.5l-0.7,0.1C57.7,68.6,58,68.5,58.2,68.5z M67.1,75.2
			c-1.3,1.7-3,2.8-4.9,3.4c-1,0.4-2.3,0.6-3.8,0.6c-1.1,0-2.2-0.1-3.5-0.3c-1.2-0.2-2.4-0.5-3.5-0.9c-1.1-0.4-2-1-2.7-1.7
			c-0.7-0.7-1.1-1.6-1.1-2.6c0-1,0.4-1.8,1.2-2.4c0.8-0.6,1.8-1.2,3-1.6l-0.3,0.1c-0.1,0.1-0.2,0.1-0.2,0.1c-0.1,0-0.1,0-0.2,0.1
			l-0.3,0.1c0.3-0.1,0.5-0.2,0.8-0.3c0.2-0.1,0.5-0.2,0.8-0.3l0.1,0.2c0.5-0.1,1.1-0.2,1.7-0.4c0.4-0.1,0.8-0.2,1.2-0.2
			c-0.1,0-0.2,0-0.2-0.1l0.2-0.1c0.3-0.1,0.6-0.1,1-0.1c0.3,0,0.7,0,1,0l-1,0.2h0.2l0,0c0.5,0,1-0.1,1.5-0.2
			c0.7-0.1,1.3-0.1,1.9-0.1h-0.1c0.3-0.1,0.7-0.1,1.2-0.1h4.8c0.8,0,1.4,0.1,2,0.2h-3c-0.7,0-1.2,0.1-1.4,0.2h-0.8
			c-0.1,0-0.4,0-0.8,0c-0.4,0-0.6,0.1-0.6,0.2c0,0-0.1,0,0,0c0,0,0,0-0.1,0l0.2-0.1c-0.3,0.1-0.6,0.1-0.9,0.1
			c-0.3,0-0.5,0.1-0.8,0.1l-0.2,0.1l0.1-0.1h-0.1c-0.1,0-0.3,0-0.7,0c-0.4,0-0.6,0.1-0.7,0.2v-0.1c-0.2,0.1-0.4,0.1-0.7,0.2
			c-0.3,0.1-0.5,0.1-0.6,0.1l-0.2,0.1h0.1l-0.2,0.1h0.1l-0.3,0.2l0,0c0.2,0,0.4,0,0.6-0.1c0.4,0,0.8,0,1.1,0l0.2-0.1H59l0.6-0.1h1
			v-0.1l0.2,0.1l0.4-0.1h2.5l-0.1-0.2h2c0.1-0.1,0.1-0.1,0.2,0c0.1,0,0.1,0,0.1,0h0.5l0.3,0.1c0.6,0,1.2,0,1.8,0c0.6,0,1.2,0,1.8,0
			C69.5,71.6,68.4,73.5,67.1,75.2z M63.4,69c-0.1,0.1-0.1,0.1-0.2,0.1V69H63.4z M61.4,69.2h-0.2H61.4L61.3,69h0.2
			C61.4,69.1,61.4,69.1,61.4,69.2L61.4,69.2z M61.3,69.3h0.2l0.1,0.1l-0.3,0.1L61.3,69.3z M58.9,69.3c-0.1,0-0.2,0-0.2-0.1
			L58.9,69.3L58.9,69.3z M70.5,69.3h-0.7l0.4-0.1L70.5,69.3L70.5,69.3z M74.9,69.3c-0.2,0-0.3-0.1-0.3-0.2h0.5L74.9,69.3L74.9,69.3z
			 M76.9,69.6l-0.2-0.1c-0.2,0-0.3,0-0.3-0.1c-0.1,0-0.1,0-0.1-0.1v-0.1c0.1,0.1,0.2,0.1,0.4,0.1c0.1,0,0.3,0,0.4,0.1L76.9,69.6z
			 M77.7,69.7l-0.5,0.1l0.1-0.2c0.4,0,0.6,0,0.7,0.1l0.1,0.1H77.7z M56.4,68.9L56.4,68.9c-0.1,0-0.2,0-0.3,0H56.4z M56,70l0.1-0.1
			c-0.1,0-0.2,0-0.4,0.1H56z M55.5,69.7C55.5,69.8,55.5,69.8,55.5,69.7l-0.3,0.1h0.1c0,0.1,0,0.1,0,0.1c0,0,0,0,0,0.1
			c0,0-0.1,0-0.2,0v0.1H55l0.1,0.1c0.1,0,0.1,0,0.1,0c0,0,0.1,0,0.2,0h0.2l0.1-0.2L55.5,69.7c0.1,0,0.1,0,0.2,0l0.1-0.1
			C55.6,69.7,55.5,69.7,55.5,69.7z M55.5,69.7C55.5,69.8,55.5,69.8,55.5,69.7L55.5,69.7L55.5,69.7z M54.8,70L54.8,70l0.2,0v-0.2
			L54.8,70z M84.9,66.8L84.9,66.8C85,66.7,84.9,66.7,84.9,66.8L84.9,66.8z M89.1,56L89.1,56L89.1,56L89.1,56z M84.7,66.7
			c-0.1,0-0.1,0-0.2,0h-0.2l0.1,0.1c0.2,0,0.3,0,0.5-0.1l-0.1-0.1C84.8,66.8,84.7,66.8,84.7,66.7z M84.4,66.9L84.4,66.9
			C84.4,66.8,84.4,66.9,84.4,66.9L84.4,66.9z M81.2,65.7c0.5,0.9,1.4,1.3,2.5,1.3c0.2,0,0.3,0,0.4-0.1H84l-0.1-0.1v-0.1
			c0.2,0,0.3,0,0.4,0c0.1,0,0.2,0,0.4,0h0.1c0.1-0.1,0.2-0.1,0.3-0.1c0.1,0,0.2-0.1,0.3-0.2c0,0.1-0.1,0.1-0.2,0.2L85,66.7
			c0.1,0,0.2-0.1,0.4-0.2c0,0,0.1-0.1,0.1-0.1h0.1l-0.1,0.1l0.1,0.1l0.1-0.1c0,0.1-0.1,0.2-0.2,0.2c-0.1,0-0.1,0,0-0.1
			c0-0.1,0-0.1,0-0.1l-0.1,0.2h0.2c0.1,0,0.1,0,0.2-0.1v-0.4c0,0,0,0,0,0c0.1-0.1,0.1-0.1,0-0.1l0.2-0.1l0.1-0.1L86,66v0.1l0.1-0.1
			L86,66.1l0.1-0.1L86,66.4L86,66.5l-0.1,0.1c0.1-0.1,0.3-0.2,0.4-0.4c0.2-0.1,0.4-0.3,0.6-0.4h-0.1l0.2-0.1l0.3-0.3l0.2-0.3
			l0.4-0.3v-0.1l0.1-0.2l0.2-0.2c0.2-0.2,0.3-0.3,0.4-0.5c0.1-0.2,0.3-0.4,0.4-0.6H89l0.4-0.6l0.1-0.1v-0.2l0.2-0.2V62l0.1-0.1
			l0.1-0.2l0.1-0.2c0.9-1.4,1.6-2.9,2.1-4.4c0.6-1.5,1-2.6,1.2-3.2c1.2-0.2,2.3-0.7,3.1-1.5c0.8-0.9,1.3-1.7,1.4-2.4l0.2-0.7
			l-0.1-0.1c-0.1,0-0.1,0-0.1-0.1c0.1-0.1,0.1-0.1,0.2-0.1L98,48.7l0.1-0.2L98,48.4c0-0.1,0-0.1,0.1-0.1l0.1-0.1l-0.1-0.6l0.1-0.1
			c0-0.1,0-0.2-0.1-0.2c-0.1,0-0.1-0.1-0.1-0.1c0-0.1,0-0.2,0.1-0.2c0.1,0,0.1-0.1,0.1-0.1l-0.1-0.1c-0.1,0-0.1,0-0.1-0.1l0.1-0.2
			C98,46.4,98,46.2,98,46c0-0.2-0.1-0.3-0.2-0.3c-0.2,0-0.3,0.1-0.5,0.2l0.1,0.2c-0.1,0.1-0.1,0.1-0.1,0.2c-0.1,0.1-0.1,0.2-0.1,0.3
			l-0.1,0.3l0.1,0.2L97,47.4v0.4c0,0.1,0,0.1-0.1,0.1c-0.1,0-0.1,0-0.1,0l-0.2,0.5l-0.1,0.3l0.1-0.5c0-0.1,0-0.1,0-0.1
			c0,0,0,0,0-0.1l-0.1-0.1l-0.2-0.2v-0.2c0,0.2-0.1,0.5-0.2,1l0.1,0.1L96.1,49L96,49.2l-0.1,0.6l-0.1,0.1l0.1,0.1L95.8,50v0.2h-0.1
			c-0.2,0.3-0.4,0.6-0.7,0.7c-0.3,0.2-0.6,0.3-1,0.4c0.4-1.7,0.6-3.2,0.6-4.7c0-2.6-0.3-4.7-1-6.3c-0.6-1.7-1.8-2.5-3.5-2.5
			c-0.4,0-0.7,0.1-0.9,0.3c-0.2,0.2-0.4,0.3-0.5,0.4c-0.4-0.8-0.8-1.2-1.2-1.2c-0.3,0-0.5,0.1-0.8,0.2c-0.3,0.1-0.4,0.2-0.4,0.2h0.1
			c-0.4,0.3-1,1-1.8,2.3c-0.8,1.3-1.5,2.9-2.2,4.8c-0.8,1.9-1.4,4.1-1.9,6.6c-0.5,2.5-0.8,5-0.8,7.6c0-0.1,0,0.3,0,1.2
			c0,0.8,0.1,1.8,0.4,2.8C80.3,63.9,80.7,64.8,81.2,65.7z M85.6,66.4C85.6,66.4,85.6,66.4,85.6,66.4C85.6,66.4,85.6,66.4,85.6,66.4
			C85.6,66.4,85.6,66.4,85.6,66.4l-0.1,0.1C85.5,66.4,85.6,66.4,85.6,66.4C85.6,66.4,85.6,66.4,85.6,66.4L85.6,66.4
			C85.6,66.4,85.6,66.4,85.6,66.4C85.6,66.4,85.6,66.4,85.6,66.4L85.6,66.4L85.6,66.4z M86.9,65.1c0.1,0,0.2,0,0.2,0.1L86.9,65.1z
			 M87.5,64.6c0-0.1,0-0.1,0-0.1c0,0,0-0.1,0-0.1L87.5,64.6z M87.2,64.8L87.2,64.8L87.2,64.8L87.2,64.8c-0.1,0-0.1,0.1-0.3,0.3
			c-0.1,0.2-0.2,0.3-0.2,0.4l-0.1-0.1l-0.2,0.2v-0.2c0.1,0,0.2-0.1,0.5-0.4c0.3-0.3,0.5-0.6,0.7-0.8C87.5,64.3,87.4,64.4,87.2,64.8z
			 M87.8,64L87.8,64c0-0.1,0-0.1,0-0.2V64z M88,64.1L88,64.1L88,64.1L88,64.1z M88.2,64.1l-0.1,0.2L88.2,64.1L88.2,64.1L88.2,64.1
			L88.2,64.1L88.2,64.1z M89.7,42.1c0.1-0.7,0.2-1,0.4-1c0.2,0.2,0.3,0.9,0.5,2.3c0.2,1.4,0.2,3,0.2,4.8v0.8c0,0.3,0,0.6-0.1,0.8
			c-0.6-0.9-0.9-2-1-3.2c-0.1-1.2-0.1-2.1-0.1-2.5C89.6,43.5,89.6,42.8,89.7,42.1z M84.2,52.1c0.7-2.5,1.3-4.3,1.8-5.6
			c0,0.3,0.1,0.8,0.2,1.4c0.1,0.6,0.3,1.3,0.6,1.9c0.3,0.7,0.7,1.3,1.2,1.9c0.5,0.6,1.1,1.1,1.8,1.5v0.2l-0.2,0.4l-0.1,0.6l-0.2,0.7
			v0.2h0.1l-0.1,0.2v-0.1l-0.1,0.4L89.1,56l0.2-0.2l0.2,0.1l-0.1,0.2L89.1,56l-0.4,1.9V58c-0.3,0.7-0.6,1.4-0.9,2.1
			c-0.3,0.7-0.7,1.4-1.1,2c-0.4,0.6-0.8,1.1-1.2,1.5c-0.4,0.4-0.8,0.6-1.2,0.6c-0.3,0-0.5-0.1-0.6-0.4c-0.2-0.3-0.3-0.6-0.4-1
			c-0.1-0.4-0.2-0.8-0.2-1.2c0-0.5,0-0.9,0-1.2C83.1,57.3,83.4,54.5,84.2,52.1z M97.5,62.9c0,1,0.6,1.7,1.6,1.7c1,0,1.6-0.7,1.6-1.7
			c0-1-0.6-1.7-1.6-1.7C98.1,61.2,97.5,61.9,97.5,62.9z M115.6,52.8L115.6,52.8c-0.9-1.4-2.2-2.2-4.1-2.2c-1.9,0-3.3,0.7-4.5,2
			c-1.1,1.3-1.7,3.1-1.7,5.3c0,2.1,0.5,3.7,1.5,4.9c1,1.2,2.4,1.8,4,1.8c2.1,0,3.6-0.9,4.6-2.6h0.1v2.3h2.1V44.5h-2.1V52.8z
			 M115.6,58.2c0,1.3-0.4,2.4-1.1,3.3c-0.7,0.9-1.7,1.3-2.9,1.3c-1.2,0-2.2-0.4-2.9-1.3c-0.7-0.9-1.1-2.1-1.1-3.7c0-1.7,0.4-3,1.1-4
			c0.7-1,1.8-1.4,3.1-1.4c1.1,0,2,0.4,2.7,1.1c0.7,0.7,1.1,1.7,1.1,2.7V58.2z M130.3,50.6c-1.8,0-3.2,0.7-4.4,2
			c-1.2,1.3-1.8,3-1.8,5.1c0,2.2,0.5,3.9,1.6,5.1c1.1,1.2,2.6,1.8,4.5,1.8c1.9,0,3.5-0.4,4.7-1.3v-2c-1.3,1-2.6,1.5-4.2,1.5
			c-1.3,0-2.4-0.4-3.2-1.2c-0.8-0.8-1.2-2-1.2-3.5h9.4V57c0-2-0.5-3.6-1.4-4.7C133.4,51.2,132,50.6,130.3,50.6z M126.3,56.3
			c0.2-1.2,0.6-2.1,1.3-2.8c0.7-0.7,1.6-1.1,2.6-1.1c1,0,1.9,0.3,2.5,1c0.6,0.7,0.9,1.7,0.9,2.9H126.3z M145.9,56.8
			c-1.1-0.5-1.8-0.8-2.1-1.2c-0.3-0.3-0.5-0.8-0.5-1.3c0-0.6,0.2-1,0.6-1.4c0.4-0.3,1-0.5,1.7-0.5c1.1,0,2.2,0.3,3,1v-2.2
			c-0.8-0.4-1.8-0.6-2.9-0.6c-1.4,0-2.5,0.4-3.4,1.1c-0.9,0.7-1.3,1.7-1.3,2.8c0,0.9,0.2,1.6,0.7,2.2c0.4,0.6,1.3,1.2,2.6,1.7
			c1.1,0.5,1.8,0.9,2.2,1.2c0.4,0.3,0.6,0.8,0.6,1.3c0,0.6-0.2,1.1-0.6,1.4c-0.4,0.3-1.1,0.5-1.9,0.5c-1.3,0-2.4-0.4-3.5-1.3v2.3
			c0.9,0.5,2,0.8,3.3,0.8c1.5,0,2.7-0.4,3.6-1.1c0.9-0.7,1.3-1.7,1.3-2.8c0-0.9-0.2-1.6-0.7-2.2C148.1,57.9,147.2,57.3,145.9,56.8z
			 M155.3,64.3h2.1V50.9h-2.1V64.3z M156.4,44.7c-0.4,0-0.7,0.1-1,0.4c-0.3,0.3-0.4,0.6-0.4,1c0,0.4,0.1,0.7,0.4,1
			c0.3,0.3,0.6,0.4,1,0.4c0.4,0,0.7-0.1,1-0.4c0.3-0.3,0.4-0.6,0.4-1c0-0.4-0.1-0.7-0.4-1C157.2,44.9,156.8,44.7,156.4,44.7z
			 M173.6,52.8L173.6,52.8c-0.9-1.4-2.3-2.2-4.1-2.2c-1.9,0-3.4,0.7-4.5,2c-1.1,1.3-1.6,3.1-1.6,5.4c0,2,0.5,3.6,1.5,4.8
			c1,1.2,2.4,1.8,4,1.8c2,0,3.6-0.9,4.6-2.6h0.1v1.5c0,3.5-1.6,5.3-4.9,5.3c-1.4,0-2.8-0.4-4.3-1.3v2.1c1.2,0.6,2.7,0.9,4.3,0.9
			c4.7,0,7.1-2.5,7.1-7.4V50.9h-2.1V52.8z M173.6,58.2c0,1.3-0.4,2.4-1.1,3.3c-0.8,0.9-1.7,1.3-2.9,1.3c-1.2,0-2.1-0.4-2.9-1.3
			c-0.7-0.9-1.1-2.1-1.1-3.6c0-1.7,0.4-3.1,1.1-4c0.7-1,1.8-1.4,3.1-1.4c1.1,0,2,0.4,2.7,1.1c0.7,0.8,1.1,1.7,1.1,2.7V58.2z M193,52
			c-0.8-0.9-1.9-1.4-3.4-1.4c-1.9,0-3.4,0.8-4.4,2.5h-0.1v-2.2H183v13.4h2.1v-7.6c0-1.2,0.4-2.2,1.1-3.1c0.7-0.8,1.6-1.2,2.7-1.2
			c2.1,0,3.1,1.4,3.1,4.3v7.6h2.1v-8.2C194.1,54.3,193.7,53,193,52z"/>
	</g>
</g>
</svg>
