<?xml version="1.0" encoding="utf-8"?>
<!-- Generator: Adobe Illustrator 21.0.0, SVG Export Plug-In . SVG Version: 6.00 Build 0)  -->
<svg version="1.1" id="Layer_1" xmlns="http://www.w3.org/2000/svg" xmlns:xlink="http://www.w3.org/1999/xlink" x="0px" y="0px"
	 viewBox="0 0 200 100" style="enable-background:new 0 0 200 100;" xml:space="preserve">
<style type="text/css">
	.st0{display:none;}
	.st1{fill:#0487BF;}
</style>
<g id="Layer_2">
	<g>
		<path class="st1" d="M116,44.9h-7.9v0.8c2.5,0,2.9,0.5,2.9,3.7V55c0,3.1-0.4,3.7-2.9,3.7c-1.9-0.3-3.2-1.3-4.9-3.2l-2-2.2
			c2.7-0.5,4.2-2.2,4.2-4.1c0-2.4-2.1-4.3-5.9-4.3h-7.7v0.8c2.5,0,2.9,0.5,2.9,3.7V55c0,3.1-0.4,3.7-2.9,3.7v0.8h8.8v-0.8
			c-2.5,0-2.9-0.6-2.9-3.7v-1.6h0.7l4.9,6.1H116c6.3,0,9-3.3,9-7.3C125,48.2,122.3,44.9,116,44.9z M97.6,52v-5.8h1.8
			c2,0,2.9,1.4,2.9,2.9c0,1.5-0.9,2.9-2.9,2.9L97.6,52L97.6,52z M116.1,58.1h-0.3c-1.6,0-1.8-0.4-1.8-2.4v-9.5c0,0,1.9,0,2.1,0
			c4.6,0,5.4,3.3,5.4,5.9C121.5,54.8,120.7,58.1,116.1,58.1z"/>
		<path class="st1" d="M67.2,53.7l3-9c0.9-2.6,0.5-3.3-2.3-3.3v-0.9h8.3v0.9c-2.8,0-3.4,0.7-4.5,3.9l-5,15H66l-4.5-13.8L57,60.3
			h-0.6l-4.9-15c-1.1-3.2-1.8-3.9-4.3-3.9v-0.9H57v0.9c-2.6,0-3.3,0.6-2.4,3.3l2.9,9L62,40.5h0.8L67.2,53.7z"/>
		<path class="st1" d="M82.1,60.1c-4.8,0-8.8-3.6-8.8-7.9c0-4.3,4-7.9,8.8-7.9c4.8,0,8.8,3.6,8.8,7.9C90.9,56.5,87,60.1,82.1,60.1z
			 M82.1,45.7c-4,0-5.5,3.6-5.5,6.5c0,2.9,1.4,6.5,5.5,6.5c4.1,0,5.5-3.6,5.5-6.5C87.6,49.3,86.2,45.7,82.1,45.7z"/>
		<path class="st1" d="M135.9,58.6v0.9h-10.1v-0.9c2.9,0,3.5-0.7,3.5-5.1v-7c0-4.4-0.5-5.1-3.5-5.1v-0.9h9.1c4.5,0,7,2.3,7,5.5
			c0,3-2.5,5.4-7,5.4h-2.5v2.2C132.4,57.9,132.9,58.6,135.9,58.6z M134.9,42h-2.5v7.7h2.5c2.5,0,3.6-1.7,3.6-3.8
			C138.5,43.8,137.4,42,134.9,42z"/>
		<path class="st1" d="M172.2,55.4l-0.2,0.8c-0.4,1.5-0.9,2-4,2h-0.6c-2.3,0-2.7-0.5-2.7-3.7v-2c3.4,0,3.7,0.3,3.7,2.6h0.8v-6.6
			h-0.8c0,2.3-0.3,2.6-3.7,2.6v-4.9h2.4c3.1,0,3.6,0.5,4,2l0.2,0.8h0.7l-0.3-4.1h-12.9v0.8c2.5,0,2.9,0.5,2.9,3.7V55
			c0,2.9-0.3,3.6-2.3,3.7c-1.8-0.3-3.1-1.3-4.8-3.2l-2-2.2c2.7-0.5,4.2-2.2,4.2-4.1c0-2.4-2.1-4.3-5.9-4.3H143v0.8
			c2.5,0,2.9,0.5,2.9,3.7V55c0,3.1-0.4,3.7-2.9,3.7v0.8h8.8v-0.8c-2.5,0-2.9-0.6-2.9-3.7v-1.6h0.7l4.9,6.1h18.1l0.3-4.1L172.2,55.4
			L172.2,55.4z M148.9,52v-5.8h1.8c2,0,2.9,1.4,2.9,2.9c0,1.5-0.9,2.9-2.9,2.9L148.9,52L148.9,52z"/>
		<path class="st1" d="M181.1,60.1c-1.8,0-3.3-0.9-4-1.5c-0.2,0.2-0.6,0.9-0.7,1.5h-0.8V54h0.9c0.4,2.9,2.4,4.6,5,4.6
			c1.4,0,2.6-0.8,2.6-2.1c0-1.1-1-2-2.8-2.9l-2.5-1.2c-1.8-0.8-3.1-2.3-3.1-4.2c0-2.1,2-3.9,4.7-3.9c1.5,0,2.7,0.5,3.4,1.1
			c0.2-0.2,0.4-0.7,0.6-1.2h0.8v5.2h-0.9c-0.3-2.1-1.5-3.8-3.8-3.8c-1.2,0-2.4,0.7-2.4,1.8c0,1.1,0.9,1.8,3,2.7l2.4,1.2
			c2.1,1,2.9,2.6,2.9,4C186.5,58.1,184,60.1,181.1,60.1z"/>
		<path class="st1" d="M194.6,60.1c-1.8,0-3.3-0.9-4-1.5c-0.2,0.2-0.6,0.9-0.7,1.5h-0.8V54h0.9c0.4,2.9,2.4,4.6,5,4.6
			c1.4,0,2.6-0.8,2.6-2.1c0-1.1-1-2-2.8-2.9l-2.5-1.2c-1.8-0.8-3.1-2.3-3.1-4.2c0-2.1,2-3.9,4.7-3.9c1.5,0,2.7,0.5,3.4,1.1
			c0.2-0.2,0.4-0.7,0.6-1.2h0.8v5.2h-0.9c-0.3-2.1-1.5-3.8-3.8-3.8c-1.2,0-2.4,0.7-2.4,1.8c0,1.1,0.9,1.8,3,2.7l2.4,1.2
			c2.1,1,2.9,2.6,2.9,4C200,58.1,197.6,60.1,194.6,60.1z"/>
		<g>
			<path class="st1" d="M3.2,49.7c0,7.7,4.5,14.4,11,17.5L4.9,41.8C3.8,44.2,3.2,46.9,3.2,49.7z"/>
			<path class="st1" d="M35.8,48.7c0-2.4-0.9-4.1-1.6-5.4c-1-1.6-1.9-3-1.9-4.6c0-1.8,1.4-3.5,3.3-3.5c0.1,0,0.2,0,0.3,0
				c-3.5-3.2-8.1-5.1-13.1-5.1c-6.8,0-12.8,3.5-16.3,8.8c0.5,0,0.9,0,1.3,0c2,0,5.2-0.2,5.2-0.2c1-0.1,1.2,1.5,0.1,1.6
				c0,0-1.1,0.1-2.2,0.2l7.1,21.1l4.3-12.8l-3-8.3c-1-0.1-2-0.2-2-0.2c-1-0.1-0.9-1.7,0.1-1.6c0,0,3.2,0.2,5.1,0.2
				c2,0,5.2-0.2,5.2-0.2c1-0.1,1.2,1.5,0.1,1.6c0,0-1.1,0.1-2.2,0.2l7,20.9l1.9-6.5C35.2,52.3,35.8,50.4,35.8,48.7z"/>
			<path class="st1" d="M23,51.4l-5.8,17c1.7,0.5,3.6,0.8,5.5,0.8c2.3,0,4.4-0.4,6.5-1.1c-0.1-0.1-0.1-0.2-0.1-0.3L23,51.4z"/>
			<path class="st1" d="M39.8,40.4c0.1,0.6,0.1,1.3,0.1,2c0,2-0.4,4.2-1.5,7l-5.9,17.2c5.8-3.4,9.7-9.6,9.7-16.8
				C42.2,46.3,41.3,43.1,39.8,40.4z"/>
			<path class="st1" d="M22.7,27C10.2,27,0,37.2,0,49.7c0,12.5,10.2,22.7,22.7,22.7c12.5,0,22.7-10.2,22.7-22.7
				C45.4,37.2,35.2,27,22.7,27z M22.7,71.3C10.8,71.3,1,61.6,1,49.7C1,37.8,10.8,28,22.7,28c11.9,0,21.6,9.7,21.6,21.6
				C44.3,61.6,34.6,71.3,22.7,71.3z"/>
		</g>
	</g>
</g>
</svg>
