<?xml version="1.0" encoding="utf-8"?>
<!-- Generator: Adobe Illustrator 21.0.0, SVG Export Plug-In . SVG Version: 6.00 Build 0)  -->
<svg version="1.1" id="Layer_1" xmlns="http://www.w3.org/2000/svg" xmlns:xlink="http://www.w3.org/1999/xlink" x="0px" y="0px"
	 viewBox="0 0 200 100" style="enable-background:new 0 0 200 100;" xml:space="preserve">
<style type="text/css">
	.st0{fill:none;}
	.st1{fill:#666766;}
</style>
<g>
	<path class="st0" d="M473.8,121.5L473.8,121.5C473.9,121.5,473.8,121.4,473.8,121.5L473.8,121.5z M499.4,109.1
		c0.3-0.2,0.5-0.5,0.5-0.9c0-1.8-0.2-3.1-0.6-3.8c-0.4-0.7-0.7-1.2-1-1.3h-0.1c-0.2,0.1-0.4,0.1-0.5,0.1s-0.4,0.1-0.9,0.1
		c0.7-3.2,1.5-6.6,2.3-9.9c0.8-3.4,1.7-6.7,2.6-10s1.8-6.4,2.7-9.4c0.9-3,1.8-5.7,2.7-8.1v-0.2c0-0.1-0.2-0.2-0.5-0.4
		c-0.3-0.2-0.8-0.4-1.3-0.5c-0.5-0.2-1.1-0.3-1.7-0.5c-0.6-0.1-1.2-0.2-1.8-0.2c-0.5,0-0.8,0.2-0.9,0.5c-0.4,0.8-0.9,2.6-1.5,5.1
		c-0.7,2.6-1.3,5.7-2.1,9.3c-0.7,3.6-1.5,7.6-2.2,11.9c-0.8,4.3-1.4,8.5-2,12.7c-1.7,0.2-3.6,0.3-5.8,0.4c-2.2,0.1-4.6,0.2-7.2,0.5
		c-0.9-0.7-1.8-1.3-2.6-1.8c0.5-1.8,0.9-3.6,1.4-5.5c0.4-1.7,0.8-3.5,1.3-5.3c-0.1,0.6-0.3,1.3-0.4,1.9c-0.2,0.7-0.3,1.5-0.3,2.4
		v0.2h-0.1c0,0.5-0.1,0.9-0.3,1.3c0,0.1,0,0.2,0,0.3c0,0.1,0,0.2,0,0.3l-0.1,0.1l0.1,0.2v0.1l-0.1-0.3l0,0v-0.1l-0.1,0.4l-0.1,0.5
		v0.3l-0.1,0.2c0,0.1,0,0.1,0.1,0.1l0.3,0.2l0.1-0.4c0.1-0.4,0.1-0.8,0.3-1.3c0.1-0.5,0.2-1,0.4-1.5h0.1v-0.3l0.1-0.2H480l0.1-0.5
		h0.1v-0.1c0-0.1,0-0.2,0-0.3c0-0.1,0-0.2,0-0.2l0.2-0.9l0.2-1l0.2-0.2c0-0.1,0-0.2-0.1-0.3l0.1-0.2v0.1l0.1-0.6l0.1-0.2
		c0.1-0.5,0.2-1.1,0.3-1.6c0.1-0.5,0.2-1.1,0.3-1.7v0.1l0.1-0.3l0.3-1.5v-0.3l0.1-0.3l0.1-0.5c0-0.1,0-0.1,0-0.3c0-0.1,0-0.2,0-0.3
		v0.1l0.1-0.4c0-0.1,0-0.1,0-0.2s0-0.2,0-0.2l0.1-0.4c0.7-2.3,1.2-4.7,1.8-7.2c0.5-2.5,1.2-4.9,1.9-7.3c0.1-0.6,0.2-1.1,0.3-1.5
		c0.1-0.4,0.2-0.8,0.2-1.2c0.1-0.4,0.1-0.8,0.1-1.2c0-0.2-0.1-0.6-0.4-1c-0.3-0.5-0.8-0.7-1.6-0.7c-1,0-2,0.5-3,1.4
		c-1,0.9-2,2.1-3,3.4s-2,2.7-2.9,4c-1,1.4-1.9,2.5-2.8,3.4c-2.6,2.6-5.4,4.5-8.3,5.7c-3,1.2-5.7,1.8-8.3,1.8c-0.7,0-1.1,0-1.4-0.1
		c-0.4,0-0.5,0.5-0.5,1.3v3l-0.3,0.1l0.3,0.1c0,0.5,0.1,0.9,0.2,1.2c0.1,0.2,0.3,0.4,0.5,0.5s0.4,0.1,0.6,0.1s0.3,0,0.4,0
		c0.9,0,2.2-0.1,3.8-0.4c1.6-0.2,3.4-0.8,5.4-1.6c2-0.8,4.1-2.1,6.3-3.6c2.2-1.6,4.4-3.7,6.5-6.3c-0.6,3.2-1.2,6.9-1.8,11.1
		s-1.2,8.2-1.8,12.2c-1.2-0.5-2.6-1.1-4.2-1.8c-1.6-0.6-3.1-0.9-4.6-0.9c-1.1,0-2.2,0.3-3.2,1c-1.1,0.7-1.6,1.8-1.6,3.2
		c0,0.4,0.1,0.8,0.2,1.3s0.2,0.9,0.4,1h-0.1c0.3,0.7,0.7,1.2,1.2,1.6s1,0.7,1.6,1s1.2,0.5,1.8,0.6c0.6,0.2,1.2,0.3,1.7,0.4
		c0-0.1,0-0.1,0.1-0.1l0.1,0.1h-0.1c0.2,0,0.5,0,0.8,0.1s0.6,0.1,0.9,0.2c0.1,0,0.2,0,0.2-0.1c0.3,0.1,0.6,0.2,1,0.2s0.7,0,1,0.1
		h0.7l-0.1,0.1h0.6c0.1,0,0.4,0,0.7,0.1c-0.3,2.6-0.6,4.8-0.8,6.8c-0.2,1.9-0.4,3.4-0.4,4.4c0,0.3,0,0.5,0,0.7s0.3,0.3,0.7,0.3
		c0.1,0,0.2,0,0.2,0s0.1,0,0.1-0.2s0.1-0.4,0.2-0.9c0.1-0.4,0.2-0.9,0.3-1.7l0.1,0.2c-0.1,0.1-0.1,0.3-0.1,0.4s0,0.4-0.1,0.5
		c0,0.1,0,0.2,0,0.2s0,0.1,0,0.2v0.1l0.1,0.2v0.1l-0.1-0.3v0.3l-0.1-0.1l0.1,0.2l-0.1,0.3v0.2l0.2,0.2l0.2,0.1l0.2,0.1l-0.1-0.4v0.1
		v-0.1l0,0l0,0c0-0.2,0.1-0.5,0.1-0.8c0-0.4,0.1-0.7,0.2-1.1h0.3l-0.2-0.4l-0.2,0.1l0.2-0.5c0-0.1,0-0.2,0-0.3c0-0.1,0-0.1,0-0.2
		l0.1-0.6l0.2-0.8c0-0.1,0-0.1-0.1-0.2l0.1-0.3l0.1-0.4l0.3-2.5l0.2-1.3l0.1-0.5l-0.1-0.1c0-0.1,0-0.3,0.1-0.5s0.1-0.4,0.2-0.5v-0.1
		c0-0.1,0-0.3,0.1-0.4s0.1-0.3,0.1-0.4c1.1,0.1,2.2,0.2,3.2,0.2s2.1,0,3.2,0.1c1.6,1.4,2.9,2.9,4,4.5s2,3.2,2.7,4.7s1.2,3,1.6,4.3
		c0.3,1.4,0.5,2.4,0.5,3.2v1.3c0,0.5,0,0.9,0.1,1.1c0.1,0.3,0.3,0.4,0.7,0.4c0.1,0,0.2-0.1,0.4-0.2c0.1-0.1,0.1-0.2,0.1-0.3
		c-0.1,0-0.1,0-0.1-0.1s0-0.2,0-0.4c0-0.1,0-0.3,0-0.4l0.1,0.1v0.5c0,0.1,0,0.2,0.1,0.3s0.1,0.1,0.1,0.2h-0.1c0,0.1,0,0.2,0,0.2
		s0,0.1,0,0.2l-0.1-0.1l0.1,0.4v0.6c0,0.1,0,0.1,0.1,0.1v0.1c-0.1,0-0.1,0-0.1-0.1l0.1,0.4v-0.1l0.1,0.2h0.1c0,0.1,0,0.2,0,0.3
		l0.1-0.3v0.2c0-0.1,0-0.2,0.1-0.4l-0.1-0.3l0.2,0.1l-0.2-0.5v-1h0.1l-0.1-0.2c0-0.2,0-0.4,0-0.6c0-0.2,0-0.4,0-0.7l0.1,0.1v-0.5
		h-0.1l0.1-0.5v-0.5l0.1-0.7l0.1-1.1v-0.9l0.3-3.2v-0.3l0.2-1.4v-0.3l0.1-0.5c-0.1,0-0.1-0.1-0.1-0.2c0.2-1.3,0.5-2.6,0.7-3.9
		c0.2-1.4,0.5-2.8,0.8-4.3h1.4c0.5,0,1,0,1.4-0.1C498.7,109.5,499.1,109.3,499.4,109.1z M479.8,95.4l0.1-0.2l0.1,0.1L479.8,95.4z
		 M481.4,87.7L481.4,87.7v0.2V87.7z M481.1,88.9L481.1,88.9L481.1,88.9L481.1,88.9z M480.8,91.7l0.1-0.2L480.8,91.7L480.8,91.7z
		 M480.8,91.9l0.1,0.2l0.1-0.5v0.1l-0.1,0.4L480.8,91.9L480.8,91.9z M480.7,91.8V92V91.8C480.6,91.8,480.6,91.8,480.7,91.8z
		 M480.4,91.6v0.3h0.1c0,0.1,0,0.1,0,0.1s0,0,0,0.1l-0.1-0.1C480.4,91.8,480.4,91.7,480.4,91.6z M462,105.6
		c-0.1-0.1-0.2-0.2-0.2-0.3l0.4,0.5L462,105.6z M463.2,107.2c-0.1-0.1-0.1-0.1-0.1-0.2h0.1V107.2z M463.1,106.9l0.2,0.1l0.1,0.1
		L463.1,106.9z M468.2,108.8l-0.2-0.1L468.2,108.8L468.2,108.8L468.2,108.8z M468.5,108.8L468.5,108.8l0.3-0.1L468.5,108.8z
		 M471.7,104.4c-0.6-0.1-1.3-0.1-1.9-0.3c-0.4,0-0.8,0-1.3-0.1s-0.9-0.2-1.4-0.4c-0.5-0.1-0.8-0.3-1.1-0.4c-0.3-0.1-0.5-0.2-0.5-0.4
		c0-0.2,0.1-0.4,0.4-0.4c1.3,0,2.6,0.2,4,0.7s2.6,0.9,3.8,1.4C473,104.5,472.4,104.4,471.7,104.4z M474.7,115.9L474.7,115.9
		C474.6,115.8,474.6,115.8,474.7,115.9L474.7,115.9z M474.8,115.9L474.8,115.9L474.8,115.9L474.8,115.9z M474.8,115.7L474.8,115.7
		L474.8,115.7L474.8,115.7z M491.9,115.3c-0.2,1.7-0.3,3.4-0.4,5c-0.8-1.5-1.5-3.1-2.2-4.9c-0.7-1.7-1.9-3.5-3.4-5.4
		c1.2,0,2.4,0,3.5,0s2.2-0.1,3.2-0.1C492.2,111.7,492,113.5,491.9,115.3z M492.8,126.3C492.8,126.3,492.8,126.4,492.8,126.3
		L492.8,126.3L492.8,126.3z M492.6,127.6l0.4,0.5l0,0l-0.1-0.1L492.6,127.6z M492.9,130.9c0,0,0.1,0.1,0.1,0.2
		C493,131.1,492.9,131,492.9,130.9z M493,130.7l-0.2-0.6L493,130.7L493,130.7z M492.9,128.6L492.9,128.6l0.1,0.2L492.9,128.6z
		 M479.1,100l-0.1,0.2v0.2c0,0.1,0,0.2,0.1,0.2l0,0c0,0,0,0,0,0.1v0.1c0-0.1,0-0.1-0.1-0.1l0.1,0.5V101h0.1v-0.2h0.1v-0.1
		c0-0.1,0-0.2,0.1-0.4l0.1-0.3H479.1L479.1,100z M492.8,131.3l0.2,0.5v-0.2h0.1l-0.1-0.2L492.8,131.3
		C492.9,131.3,492.9,131.3,492.8,131.3z M474,122.2L474,122.2v0.3v-0.1h0.1L474,122.2L474,122.2z M473.9,122.2
		C473.9,122.2,474,122.2,473.9,122.2L473.9,122.2L473.9,122.2z M474.2,121.4l0.1-0.2L474.2,121.4
		C474.2,121.3,474.2,121.3,474.2,121.4L474.2,121.4z M473.9,121.5L473.9,121.5v0.2l-0.1-0.1l0.1,0.3v-0.1c0,0.1,0,0.2,0.1,0.2v-0.2
		c0,0.1,0,0.1,0,0.1s0,0,0,0.1v0.2c0.1,0,0.1-0.1,0.1-0.4v-0.2H474L473.9,121.5z M479.3,98.6L479.3,98.6L479.3,98.6L479.3,98.6z
		 M511.3,107.3l-0.1,0.2C511.3,107.4,511.4,107.3,511.3,107.3L511.3,107.3z M567.2,123.9c-0.4-0.2-1.7-0.5-4-1.1
		c-2.3-0.5-5.2-1.1-8.5-1.7c-3.4-0.6-7-1.2-11-1.8c-4-0.6-7.8-1-11.4-1.3c1-3.3,1.7-6.1,1.9-8.5c0.3-2.3,0.6-4.5,1-6.5
		c0.4-3.5,0.7-6.3,0.9-8.4s0.3-3.8,0.3-5.2c0-0.7-0.1-1.3-0.4-1.8c-0.3-0.5-0.8-0.8-1.6-0.8c-0.5,0-0.9,0.2-1.1,0.5
		c-0.3,0.3-0.5,0.7-0.6,1.1c-0.2,0.5-0.3,1-0.4,1.5c-0.1,0.7-0.3,2.2-0.5,4.7s-0.6,5.6-1.2,9.4v0.3l-0.2,0.4l-0.6,1.8
		c-0.4,0.7-0.8,1.5-1.3,2.4s-1,1.7-1.6,2.4c-0.5,0.8-1.1,1.4-1.7,1.9c-0.6,0.5-1.1,0.8-1.5,0.8c-0.7,0-1.1-0.9-1.1-2.7
		c0-2.1,0.3-4.2,1-6.4c0.7-2.2,1.3-4,1.8-5.6c1.2-3.2,2.2-5.6,3.2-7.3c0.9-1.7,1.6-2.9,2.2-3.8c0.6-0.8,1-1.4,1.3-1.8
		c0.3-0.3,0.5-0.7,0.5-1.2c0-0.9-0.3-1.5-0.9-1.9c-0.6-0.4-1-0.5-1.3-0.5c-0.5,0-0.7,0.1-0.7,0.2h0.1c-0.5,0.3-1.4,1.2-2.5,2.7
		s-2.2,3.4-3.4,5.8c-1.1,2.4-2.2,5.1-3.1,8.1c-0.6,2-1.1,4.1-1.4,6.2c-0.2,0.3-0.3,0.5-0.5,0.8h0.1l-0.2,0.2l-0.2,0.4
		c-0.1,0.1-0.2,0.2-0.2,0.3l-0.2,0.5l-0.4,0.5c0,0.1,0,0.1,0,0.1s0,0,0,0.1h0.1l-0.1,0.1l-0.1,0.3l-0.2,0.4c-0.8,1.6-1.5,2.7-2,3.3
		c-0.5,0.7-0.8,1-1,1s-0.3-0.2-0.3-0.5c0-0.5,0.1-1.3,0.4-2.4s0.6-2.2,0.9-3.5c0.3-1.3,0.6-2.5,0.9-3.6c0.3-1.2,0.5-2.1,0.6-2.7
		c0.5-1.9,0.9-3.5,1.3-4.8c0.4-1.3,0.7-2.4,1-3.2c0.3-0.8,0.5-1.5,0.7-1.9c0.1-0.4,0.2-0.8,0.2-1.1c0-0.1-0.1-0.2-0.2-0.4
		c-0.2-0.2-0.3-0.5-0.6-0.7c-0.2-0.3-0.5-0.5-0.9-0.7c-0.3-0.2-0.7-0.3-1.1-0.3c-0.6,0-1.5,1.5-2.6,4.5s-2.2,7.9-3.4,14.8v-0.1
		l-0.1,0.2v-0.2l-0.2,0.2l-0.1,0.2l0.2,0.2l-0.4,0.5l-0.1-0.3l0,0c-0.1,0.1-0.2,0.3-0.3,0.4c-0.2,0.3-0.4,0.5-0.5,0.8l-0.1,0.3
		l-0.1-0.1l-0.3,0.4c-0.1,0.1-0.2,0.2-0.2,0.3l-0.3,0.4l-0.3,0.2l-0.6,0.7l-0.4,0.4c-0.5,0.5-1.2,1.3-2.1,2.2
		c-0.8,0.9-1.6,1.3-2.3,1.3c-0.3,0-0.4-0.3-0.4-0.8c0-1,0.1-2.2,0.4-3.5s0.6-2.7,0.9-4c0.4-1.3,0.7-2.6,1.1-3.9
		c0.4-1.2,0.7-2.3,0.9-3.1c0.5-2,1-3.8,1.5-5.2c0.5-1.4,0.8-2.6,1.2-3.5c0.3-0.9,0.6-1.6,0.8-2.1c0.2-0.5,0.3-0.9,0.3-1.2
		c-0.3-0.5-0.6-0.9-0.9-1.1c-0.3-0.3-0.6-0.5-0.9-0.7s-0.7-0.3-1.1-0.3c-0.5,0-1.2,1.2-2.2,3.7s-2.1,6.5-3.2,11.9
		c-0.4,2-0.8,4.1-1.2,6.2c-0.4,2.1-0.5,4.3-0.5,6.6c0,0.2,0,0.6,0.1,1s0.3,0.8,0.5,1.2c0.3,0.4,0.6,0.7,1,1s0.9,0.5,1.6,0.5
		c0.9,0,1.7-0.2,2.4-0.7c0.7-0.5,1.3-1,1.9-1.6c0.5-0.6,1-1.3,1.4-1.9s0.7-1.2,1-1.6l0.6-0.9V111c0-0.1,0-0.1,0.1,0
		c0.1,0,0.1,0,0.1,0l0.3-0.5l0.1-0.1c-0.1,0.4-0.1,0.7-0.1,1.1v2.4c0,0.6,0.1,1.2,0.2,1.7s0.4,1,0.8,1.4c0.4,0.4,0.9,0.6,1.7,0.6
		c0.9,0,1.7-0.3,2.3-1c0.7-0.7,1.2-1.4,1.7-2.3c0.4-0.8,0.8-1.7,1-2.5c0,0.1,0,0.2,0,0.4c0.1,0.9,0.2,1.8,0.5,2.7
		c0.3,0.8,0.8,1.5,1.4,2.1c0.7,0.6,1.6,0.9,2.8,0.9c0.8,0,1.4-0.2,2-0.5c0.5-0.3,1-0.7,1.4-1.1s0.7-0.8,1-1.3c0.3-0.4,0.5-0.7,0.7-1
		c-0.2,0.8-0.3,1.6-0.5,2.2s-0.4,1.4-0.7,2.2c-0.4,0-1.5-0.1-3.3-0.2s-3.8-0.2-6.2-0.2c-2.2,0-4.5,0.1-7,0.2c-2.4,0.1-4.6,0.5-6.7,1
		c-2,0.5-3.7,1.4-5,2.5s-2,2.6-2,4.5c0,2.3,0.7,4.1,2.1,5.4s3,2.4,4.7,3.1c1.8,0.7,3.5,1.2,5.2,1.4s2.9,0.4,3.6,0.4
		c2.8,0,5.2-0.5,7.2-1.5s3.7-2.2,5-3.7c1.4-1.5,2.5-3.1,3.4-4.9c0.9-1.7,1.6-3.3,2.1-4.8c0.4,0,0.8,0,1.2,0s0.8,0.1,1.2,0.1
		c0.2-0.1,0.5-0.1,0.8-0.1l1,0.2h0.7c0,0.1,0.1,0.1,0.3,0.2h0.4l-0.4-0.5h-0.3c0,0.1-0.1,0.1-0.3,0.1l-0.3-0.1l-0.2-0.2
		c0.3,0.1,0.6,0.1,0.9,0.1c0.3,0,0.6,0.1,0.9,0.2h-0.4l-0.2,0.3c0.4,0.1,0.7,0.1,1.1,0.1c0.4,0,0.7,0.1,1,0.1c-0.1,0-0.1,0-0.1-0.1
		h0.1l0.1,0.1h0.3c0.1,0.1,0.4,0.2,0.9,0.3c0.5,0.1,0.8,0.1,1,0.1h0.1l0.1,0.1h0.1c0.1,0,0.2,0,0.4,0c0.1,0,0.2,0,0.4,0h0.2l2.1,0.4
		c3.1,0.7,6,1.3,8.7,1.9s5.1,1.2,7.1,1.7s3.6,0.9,4.7,1.2c1.1,0.3,1.7,0.4,1.6,0.4c0.4,0,0.8-0.3,1.1-0.8s0.4-1.2,0.4-2
		c0-0.4-0.2-0.8-0.4-1.1C567.5,124,567.3,123.9,567.2,123.9z M511.8,107.1c0-0.1,0-0.2,0.1-0.2L511.8,107.1z M513,119.8h0.8
		c-0.1,0-0.2,0-0.3,0S513.3,119.9,513,119.8l-0.8,0.1C512.5,119.8,512.8,119.8,513,119.8z M523,127.2c-1.5,1.9-3.3,3.2-5.5,3.8
		c-1.1,0.5-2.5,0.7-4.2,0.7c-1.2,0-2.5-0.1-3.9-0.3s-2.7-0.6-3.9-1c-1.2-0.5-2.2-1.1-3-1.9c-0.8-0.8-1.2-1.7-1.2-2.9
		c0-1.1,0.4-2,1.3-2.7s2-1.3,3.4-1.8l-0.4,0.1c-0.1,0.1-0.2,0.1-0.3,0.1c-0.1,0-0.1,0-0.2,0.1l-0.4,0.1c0.3-0.1,0.6-0.2,0.9-0.4
		c0.3-0.1,0.6-0.2,0.9-0.4l0.1,0.2c0.6-0.1,1.2-0.3,1.9-0.5c0.5-0.1,0.9-0.2,1.3-0.2c-0.1,0-0.2,0-0.2-0.1l0.2-0.1
		c0.4-0.1,0.7-0.1,1.1-0.1s0.8,0,1.2,0L511,120h0.2l-0.1,0.1c0.5-0.1,1.1-0.1,1.7-0.2c0.8-0.1,1.5-0.1,2.1-0.1h-0.1
		c0.4-0.1,0.8-0.1,1.3-0.1h5.4c0.9,0,1.6,0.1,2.2,0.2h-3.3c-0.8,0-1.3,0.1-1.5,0.2H518c-0.1,0-0.4,0-0.9,0c-0.4,0-0.7,0.1-0.7,0.2
		c0,0-0.1,0,0,0c0,0,0,0-0.1,0l0.2-0.1c-0.4,0.1-0.7,0.1-1,0.1s-0.6,0.1-0.9,0.1l-0.2,0.1l0.1-0.1h-0.1c-0.1,0-0.4,0-0.8,0
		c-0.4,0-0.7,0.1-0.8,0.2v-0.1c-0.2,0.1-0.4,0.1-0.8,0.2c-0.3,0.1-0.6,0.1-0.7,0.1l-0.2,0.1h0.1L511,121h0.1l-0.4,0.3h-0.1
		c0.2,0,0.4-0.1,0.7-0.1c0.4,0,0.8,0,1.3,0l0.3-0.1h1l0.7-0.1h1.1v-0.1l0.2,0.1l0.5-0.1h2.8l-0.1-0.2h2.2c0.1-0.1,0.1-0.1,0.2,0
		c0.1,0,0.1,0,0.2,0h0.6l0.4,0.1c0.7,0,1.3,0,2,0s1.4,0,2,0C525.8,123.2,524.5,125.3,523,127.2z M518.9,120.3
		c-0.1,0.1-0.1,0.1-0.2,0.1v-0.1H518.9z M516.6,120.5h-0.2H516.6l-0.1-0.2h0.2C516.7,120.4,516.6,120.4,516.6,120.5L516.6,120.5z
		 M516.5,120.6h0.2l0.1,0.1l-0.4,0.1L516.5,120.6z M513.8,120.6c-0.1,0-0.2,0-0.2-0.1L513.8,120.6L513.8,120.6z M526.8,120.6H526
		l0.5-0.1L526.8,120.6L526.8,120.6z M531.8,120.7c-0.2,0-0.3-0.1-0.4-0.2h0.5L531.8,120.7L531.8,120.7z M534,120.9l-0.3-0.1
		c-0.2,0-0.3,0-0.4-0.1c-0.1,0-0.1,0-0.1-0.1v-0.1c0.1,0.1,0.3,0.1,0.4,0.1c0.1,0,0.3,0,0.4,0.1L534,120.9z M534.9,121l-0.5,0.1
		l0.1-0.3c0.4,0,0.7,0,0.8,0.1l0.1,0.1C535.4,121,534.9,121,534.9,121z M509.2,121.5l0.1-0.1L509.2,121.5L509.2,121.5z M509.3,121.4
		L509.3,121.4h0.3v-0.2L509.3,121.4z M510,121.1L510,121.1L510,121.1L510,121.1z M510.1,121.1C510.1,121.2,510,121.2,510.1,121.1
		l-0.4,0.1h0.1c0,0.1,0,0.1,0,0.1s0,0,0,0.1c-0.1,0-0.1,0-0.2,0v0.1h-0.1l0.1,0.1c0.1,0,0.1,0,0.1,0s0.1,0,0.2,0h0.2l0.1-0.2
		L510.1,121.1c0.1,0,0.1,0,0.2,0l0.1-0.1C510.2,121,510.1,121.1,510.1,121.1z M511.1,120.1L511.1,120.1c-0.1,0-0.2,0-0.4,0H511.1z
		 M510.6,121.4l0.1-0.1c-0.1,0-0.3,0-0.4,0.1H510.6z M510.5,120.2c-0.2,0-0.4,0-0.6,0l0,0C510.2,120.2,510.3,120.2,510.5,120.2z
		 M542.5,117.9L542.5,117.9C542.4,117.9,542.4,117.9,542.5,117.9L542.5,117.9z M543,117.8L543,117.8C543,117.7,543,117.8,543,117.8
		L543,117.8z M542.7,117.7c-0.1,0-0.1,0-0.2,0h-0.2l0.1,0.1c0.2,0,0.3,0,0.5-0.1H542.7C542.8,117.8,542.8,117.8,542.7,117.7z
		 M538.9,116.5c0.6,1,1.5,1.4,2.8,1.4c0.2,0,0.3,0,0.4-0.1h-0.2l-0.1-0.1v-0.1c0.2,0,0.3,0,0.4,0c0.1,0,0.3,0,0.5,0h0.1
		c0.1-0.1,0.2-0.1,0.3-0.1s0.2-0.1,0.3-0.2c0,0.1-0.1,0.1-0.2,0.3l-0.2,0.2c0.1-0.1,0.3-0.1,0.4-0.2c0.1,0,0.1-0.1,0.1-0.1h0.1
		l-0.1,0.1l0.1,0.1l0.1-0.1c0,0.1-0.1,0.2-0.2,0.2c-0.1,0-0.1,0,0-0.1c0-0.1,0-0.1,0-0.1l-0.1,0.3h0.3c0.1,0,0.1,0,0.2-0.1v-0.5l0,0
		c0.1-0.1,0.1-0.1,0-0.1l0.2-0.1l0.1-0.1l0.1-0.1v0.1l0.1-0.1l-0.1,0.2l0.1-0.1l-0.1,0.4l-0.2,0.2c0.1-0.1,0.3-0.3,0.5-0.4
		c0.2-0.2,0.4-0.3,0.7-0.4h-0.1l0.3-0.1l0.4-0.4l0.3-0.4l0.5-0.4v-0.1l0.1-0.2l0.2-0.2c0.2-0.2,0.3-0.4,0.5-0.6
		c0.1-0.2,0.3-0.4,0.4-0.7h-0.1l0.5-0.7l0.1-0.1v-0.2l0.2-0.2v-0.3l0.1-0.1l0.1-0.2l0.1-0.2c1-1.6,1.8-3.2,2.4-4.9
		c0.6-1.7,1.1-2.9,1.4-3.6c1.4-0.2,2.5-0.7,3.5-1.7c0.9-1,1.5-1.9,1.6-2.7l0.3-0.8l-0.1-0.1c-0.1,0-0.1,0-0.1-0.1
		c0.1-0.1,0.1-0.1,0.3-0.1l-0.1-0.5l0.1-0.2l-0.1-0.2c0-0.1,0-0.1,0.1-0.1l0.1-0.1l-0.1-0.6l0.1-0.1c0-0.1,0-0.2-0.1-0.2
		s-0.1-0.1-0.1-0.1c0-0.1,0-0.2,0.1-0.2s0.1-0.1,0.1-0.1l-0.1-0.1c-0.1,0-0.1,0-0.1-0.1l0.1-0.2c-0.1-0.2-0.1-0.5-0.1-0.7
		s-0.1-0.3-0.2-0.3c-0.2,0-0.4,0.1-0.5,0.3l0.1,0.2c-0.1,0.1-0.1,0.1-0.1,0.2c-0.1,0.1-0.1,0.2-0.1,0.4l-0.1,0.4l0.1,0.2l-0.2,0.4
		v0.5c0,0.1,0,0.2-0.1,0.1c-0.1,0-0.1,0-0.1,0l-0.2,0.5l-0.1,0.4l0.1-0.5c0-0.1,0-0.1,0-0.1s0,0,0-0.1l-0.1-0.1l-0.3-0.2v-0.2
		c0,0.2-0.1,0.6-0.2,1.1l0.1,0.1l-0.2,0.2l-0.1,0.3l-0.1,0.6l-0.1,0.1l0.1,0.1l-0.1,0.1v0.2h-0.1c-0.2,0.4-0.5,0.6-0.8,0.8
		c-0.4,0.2-0.7,0.3-1.1,0.5c0.4-1.9,0.6-3.6,0.6-5.3c0-2.9-0.4-5.2-1.1-7.1c-0.7-1.9-2-2.8-3.9-2.8c-0.4,0-0.8,0.1-1,0.3
		c-0.3,0.2-0.5,0.4-0.6,0.5c-0.4-0.9-0.9-1.3-1.4-1.3c-0.3,0-0.6,0.1-0.9,0.2c-0.3,0.1-0.5,0.2-0.5,0.3h0.1c-0.5,0.3-1.1,1.2-2,2.6
		c-0.8,1.4-1.7,3.2-2.5,5.4c-0.8,2.2-1.6,4.6-2.2,7.4c-0.6,2.8-0.9,5.6-0.9,8.5c0-0.1,0,0.4,0,1.3s0.1,2,0.4,3.1
		C537.8,114.5,538.3,115.6,538.9,116.5z M543.8,117.4L543.8,117.4C543.8,117.3,543.8,117.4,543.8,117.4
		C543.7,117.4,543.8,117.4,543.8,117.4L543.8,117.4C543.7,117.4,543.7,117.4,543.8,117.4C543.7,117.4,543.7,117.4,543.8,117.4
		L543.8,117.4C543.8,117.3,543.8,117.3,543.8,117.4C543.8,117.3,543.8,117.3,543.8,117.4L543.8,117.4L543.8,117.4z M545.2,115.9
		c0.1,0,0.2,0,0.2,0.1L545.2,115.9z M545.5,115.5L545.5,115.5L545.5,115.5L545.5,115.5c-0.1,0-0.2,0.1-0.3,0.3
		c-0.2,0.2-0.2,0.4-0.2,0.5l-0.1-0.1l-0.3,0.3v-0.2c0.1,0,0.2-0.2,0.5-0.5s0.6-0.6,0.8-0.9C545.9,115,545.8,115.2,545.5,115.5z
		 M546.2,114.7L546.2,114.7c0-0.1,0-0.1,0-0.2V114.7z M546.4,114.8L546.4,114.8L546.4,114.8L546.4,114.8z M546.7,114.8l-0.1,0.2
		L546.7,114.8L546.7,114.8L546.7,114.8L546.7,114.8L546.7,114.8z M548.4,90.2c0.1-0.8,0.2-1.2,0.4-1.2c0.2,0.2,0.4,1.1,0.5,2.6
		c0.2,1.6,0.3,3.4,0.3,5.4v0.9c0,0.3,0,0.6-0.1,0.9c-0.7-1-1-2.2-1.1-3.6s-0.1-2.3-0.1-2.8C548.2,91.7,548.3,90.9,548.4,90.2z
		 M542.1,101.3c0.8-2.8,1.5-4.9,2-6.3c0,0.4,0.1,0.9,0.2,1.6c0.1,0.7,0.4,1.4,0.7,2.2c0.3,0.8,0.8,1.5,1.3,2.2s1.2,1.2,2,1.7v0.2
		l-0.2,0.4l-0.1,0.6l-0.3,0.8v0.2h0.1l-0.1,0.2V105l-0.1,0.5l-0.1,0.3l0.3-0.2l0.2,0.1l-0.1,0.3l-0.3-0.2l-0.5,2.2v0.1
		c-0.3,0.8-0.6,1.6-1,2.4s-0.8,1.6-1.2,2.2c-0.4,0.7-0.9,1.2-1.3,1.7c-0.5,0.4-0.9,0.6-1.3,0.6c-0.3,0-0.5-0.1-0.7-0.5
		c-0.2-0.3-0.3-0.7-0.5-1.1c-0.1-0.4-0.2-0.9-0.2-1.4s0-1,0-1.4C540.9,107.2,541.3,104.1,542.1,101.3z M547.7,105.7L547.7,105.7
		L547.7,105.7L547.7,105.7z M557.1,113.4c0,1.1,0.7,1.9,1.8,1.9s1.8-0.8,1.8-1.9s-0.7-1.9-1.8-1.9
		C557.8,111.6,557.1,112.3,557.1,113.4z M576.2,93.7h-2.6v8.7h-0.1c-0.7-1.2-2.2-2.2-4.4-2.2c-3.5,0-6.5,3-6.5,7.8
		c0,4.4,2.7,7.4,6.2,7.4c2.4,0,4.1-1.2,4.9-2.8h0.1l0.1,2.5h2.4c-0.1-1-0.1-2.5-0.1-3.7L576.2,93.7L576.2,93.7z M573.6,108.9
		c0,0.4,0,0.8-0.1,1.1c-0.5,2-2.1,3.1-3.9,3.1c-2.8,0-4.3-2.4-4.3-5.4c0-3.2,1.6-5.6,4.3-5.6c2,0,3.4,1.4,3.8,3.1
		c0.1,0.3,0.1,0.8,0.1,1.1v2.6C573.5,108.9,573.6,108.9,573.6,108.9z M586.4,100.2c-4.2,0-6.8,3.4-6.8,7.8s2.7,7.3,7.1,7.3
		c2.3,0,3.9-0.5,4.8-0.9l-0.5-1.9c-1,0.4-2.1,0.8-4,0.8c-2.6,0-4.9-1.5-5-5h10.2c0-0.3,0.1-0.7,0.1-1.2
		C592.4,104.3,591.2,100.2,586.4,100.2z M582.2,106.3c0.2-1.8,1.4-4.3,4-4.3c3,0,3.7,2.6,3.7,4.3H582.2z M600.4,106.6
		c-1.9-0.7-2.8-1.3-2.8-2.5c0-1.1,0.9-2,2.4-2c1.4,0,2.4,0.5,3,0.8l0.7-1.9c-0.8-0.5-2.1-0.9-3.6-0.9c-3.1,0-5,1.9-5,4.3
		c0,1.7,1.2,3.2,3.8,4.1c1.9,0.7,2.7,1.4,2.7,2.7c0,1.2-0.9,2.2-2.8,2.2c-1.3,0-2.7-0.5-3.5-1l-0.7,2c1,0.6,2.5,1,4.1,1
		c3.4,0,5.4-1.8,5.4-4.3C604.2,108.8,602.9,107.5,600.4,106.6z M609,94.8c-1,0-1.7,0.7-1.7,1.6s0.7,1.6,1.6,1.6c1,0,1.7-0.7,1.7-1.6
		S610,94.8,609,94.8z M607.7,115h2.6v-14.5h-2.6V115z M624.8,102.7L624.8,102.7c-0.7-1.2-2.1-2.5-4.6-2.5c-3.3,0-6.5,2.8-6.5,7.7
		c0,4,2.6,7.1,6.2,7.1c2.2,0,3.8-1.1,4.6-2.4h0.1v1.6c0,3.7-2,5.1-4.7,5.1c-1.8,0-3.3-0.5-4.3-1.1l-0.7,2c1.2,0.8,3.1,1.2,4.8,1.2
		c1.8,0,3.9-0.4,5.3-1.7c1.4-1.3,2.1-3.3,2.1-6.6v-8.4c0-1.8,0.1-2.9,0.1-4h-2.3L624.8,102.7z M624.5,108.8c0,0.4-0.1,1-0.2,1.4
		c-0.6,1.7-2,2.7-3.7,2.7c-2.8,0-4.3-2.4-4.3-5.2c0-3.4,1.8-5.5,4.3-5.5c1.9,0,3.2,1.3,3.7,2.8c0.1,0.4,0.1,0.8,0.1,1.2v2.6H624.5z
		 M638.9,100.2c-2.4,0-4.1,1.3-4.8,2.7H634l-0.2-2.4h-2.3c0.1,1.2,0.1,2.4,0.1,3.9V115h2.6v-8.7c0-0.5,0.1-0.9,0.2-1.2
		c0.5-1.5,1.8-2.7,3.5-2.7c2.5,0,3.4,1.9,3.4,4.3v8.4h2.6v-8.7C644,101.4,640.9,100.2,638.9,100.2z"/>
</g>
<g>
	<g>
		<path class="st1" d="M47.1,40.3c-1.9,0-4.1-0.9-5.9-2.6l-1.3,2.6c1.8,1.7,4.4,2.8,7.2,2.8c3.9,0,6.6-1.9,6.6-5.1
			c0-6.3-9.5-4.3-9.5-8.1c0-1.2,1.1-1.8,2.9-1.8c1.3,0,3.2,0.5,5.1,1.6l1.2-2.6c-1.6-1.1-3.9-1.8-6.1-1.8c-3.8,0-6.4,1.9-6.4,4.9
			c0,6.2,9.5,4.1,9.5,8C50.4,39.5,49.2,40.3,47.1,40.3z M58,39.2c0,2.7,1.7,3.9,3.7,3.9c1.1,0,2.2-0.4,3.3-1l-0.7-2.2
			c-0.8,0.4-1.4,0.6-2,0.6c-0.9,0-1.4-0.4-1.4-1.8v-6.4h3.9v-2.2h-3.9v-3.7H58v3.7h-1.9v2.2H58V39.2z M76.8,25.3l-3-1.3l-2.7,3.7
			h2.6L76.8,25.3z M77.1,39.2c-1,1-2.3,1.6-3.8,1.6c-2.1,0-3.7-1.3-4.1-3.3h10.1c0.4-4.8-1.6-7.9-6.2-7.9c-4,0-6.7,2.8-6.7,6.8
			s2.7,6.7,6.8,6.7c2.3,0,4.2-0.8,5.5-2.3L77.1,39.2z M73,31.8c2.2,0,3.6,1.3,3.7,3.5h-7.6C69.4,33.2,70.9,31.8,73,31.8z M96.6,36.3
			c0-4.1-2.6-6.8-6.4-6.8c-2.1,0-3.7,0.9-4.7,2.4v-2.3h-2.9v18.2h2.9v-7.2c1,1.6,2.6,2.4,4.7,2.4C94.1,43.1,96.6,40.3,96.6,36.3z
			 M85.6,36.2c0-2.5,1.7-4.3,4.1-4.3s4.1,1.8,4.1,4.3c0,2.6-1.7,4.4-4.1,4.4C87.2,40.6,85.6,38.8,85.6,36.2z M109.7,35.5V43h2.9
			v-8.3c0-3.2-1.9-5.1-5-5.1c-2.3,0-4,0.8-4.9,2.7v-7.9h-2.9V43h2.9v-6.6c0-2.4,1.4-4.1,3.8-4.2C108.5,32.2,109.7,33.5,109.7,35.5z
			 M124.7,43h2.8v-8.8c0-2.9-2-4.7-5.4-4.7c-2.5,0-3.9,0.6-5.7,1.7l1.2,2c1.3-0.9,2.7-1.4,3.9-1.4c2.1,0,3.2,1,3.2,2.7v0.4h-4
			c-3.2,0-5,1.6-5,4s1.8,4.1,4.7,4.1c1.9,0,3.5-0.6,4.4-1.8L124.7,43L124.7,43z M124.7,38.3c-0.2,1.5-1.7,2.5-3.8,2.5
			c-1.6,0-2.6-0.8-2.6-2c0-1.3,0.9-1.8,2.8-1.8h3.6V38.3z M139.5,29.5c-2.3,0-4,0.8-4.9,2.7v-2.6h-2.9V43h2.9v-7.1
			c0.2-2.1,1.6-3.6,3.8-3.6c2,0,3.2,1.2,3.2,3.2V43h2.9v-8.3C144.5,31.5,142.7,29.5,139.5,29.5z M158.4,39.2c-1,1-2.3,1.6-3.8,1.6
			c-2.1,0-3.7-1.3-4.1-3.3h10.1c0.4-4.8-1.6-7.9-6.2-7.9c-4,0-6.7,2.8-6.7,6.8s2.7,6.7,6.8,6.7c2.3,0,4.2-0.8,5.5-2.3L158.4,39.2z
			 M154.3,31.8c2.2,0,3.6,1.3,3.7,3.5h-7.6C150.7,33.2,152.2,31.8,154.3,31.8z M32.3,70.5c-3.5,0-6.3-2.7-6.3-6.2s2.8-6.2,6.3-6.2
			c1.8,0,3.6,0.9,4.9,2.2l1.7-2.2c-1.7-1.7-4.2-2.7-6.7-2.7c-5.2,0-9.2,3.8-9.2,8.8s4,8.9,9.1,8.9c2.5,0,5-1.1,6.8-2.9l-1.8-2
			C35.9,69.6,34.1,70.5,32.3,70.5z M49.3,59.6c-2.3,0-4,0.8-4.9,2.7v-7.9h-2.9V73h2.9v-6.6c0-2.4,1.4-4.1,3.8-4.2
			c2,0,3.2,1.2,3.2,3.2v7.5h2.9v-8.3C54.3,61.6,52.5,59.6,49.3,59.6z M63.9,59.6c-2.5,0-3.9,0.6-5.7,1.7l1.2,2
			c1.3-0.9,2.7-1.4,3.9-1.4c2.1,0,3.2,1,3.2,2.7V65h-4c-3.2,0-5,1.6-5,4s1.8,4.1,4.7,4.1c1.9,0,3.5-0.6,4.4-1.8v1.6h2.8v-8.8
			C69.2,61.4,67.3,59.6,63.9,59.6z M66.4,68.4c-0.2,1.5-1.7,2.5-3.8,2.5c-1.6,0-2.6-0.8-2.6-2c0-1.3,0.9-1.8,2.8-1.8h3.6V68.4z
			 M81.3,59.6c-2.3,0-4,0.8-4.9,2.7v-2.6h-2.9V73h2.9v-7c0.2-2.1,1.6-3.6,3.8-3.6c2,0,3.2,1.2,3.2,3.2v7.5h2.9v-8.3
			C86.3,61.6,84.4,59.6,81.3,59.6z M99.8,61.9c-0.9-1.5-2.5-2.3-4.5-2.3c-3.5,0-5.9,2.6-5.9,6.3c0,3.8,2.4,6.4,6,6.4
			c2,0,3.5-0.8,4.4-2.3v1.7c0,2.3-1.7,3.8-4.2,3.8c-1.6,0-2.9-0.5-4.2-1.5l-1.2,2.1c1.6,1.1,3.5,1.8,5.5,1.8c4.2,0,6.9-2.4,6.9-6.2
			v-12h-2.9L99.8,61.9L99.8,61.9z M95.9,70.2c-2.3,0-3.9-1.7-3.9-4.1s1.6-4.1,3.9-4.1s3.8,1.7,3.8,4.1
			C99.8,68.5,98.2,70.2,95.9,70.2z M112.1,59.6c-2.5,0-3.9,0.6-5.7,1.7l1.2,2c1.3-0.9,2.7-1.4,3.9-1.4c2.1,0,3.2,1,3.2,2.7V65h-4
			c-3.2,0-5,1.6-5,4s1.8,4.1,4.7,4.1c1.9,0,3.5-0.6,4.4-1.8v1.6h2.8v-8.8C117.4,61.4,115.5,59.6,112.1,59.6z M114.6,68.4
			c-0.2,1.5-1.7,2.5-3.8,2.5c-1.6,0-2.6-0.8-2.6-2c0-1.3,0.9-1.8,2.8-1.8h3.6V68.4z M124.6,62.4v-2.7h-2.9V73h2.9v-7
			c0.2-2.3,1.9-3.9,4.6-3.7v-2.8C127.1,59.6,125.5,60.6,124.6,62.4z M139.5,59.6c-2.3,0-4,0.8-4.9,2.7v-2.6h-2.9V73h2.9v-7
			c0.2-2.1,1.6-3.6,3.8-3.6c2,0,3.2,1.2,3.2,3.2v7.5h2.9v-8.3C144.5,61.6,142.7,59.6,139.5,59.6z M150.2,54.2c-1,0-1.7,0.7-1.7,1.8
			c0,1,0.7,1.7,1.7,1.7s1.7-0.7,1.7-1.7C151.9,54.9,151.2,54.2,150.2,54.2z M148.8,73.1h2.9V59.7h-2.9V73.1z M161.3,59.6
			c-4,0-6.7,2.8-6.7,6.8s2.7,6.7,6.8,6.7c2.3,0,4.2-0.8,5.5-2.3l-1.5-1.6c-1,1-2.3,1.6-3.8,1.6c-2.1,0-3.7-1.3-4.1-3.3h10.1
			C167.9,62.7,166,59.6,161.3,59.6z M157.4,65.4c0.3-2.1,1.8-3.5,3.9-3.5c2.2,0,3.6,1.3,3.7,3.5H157.4z M173.8,62.4v-2.7h-2.9V73
			h2.9v-7c0.2-2.3,1.9-3.9,4.6-3.7v-2.8C176.3,59.6,174.7,60.6,173.8,62.4z"/>
	</g>
</g>
</svg>
