<?xml version="1.0" encoding="utf-8"?>
<!-- Generator: Adobe Illustrator 21.0.0, SVG Export Plug-In . SVG Version: 6.00 Build 0)  -->
<svg version="1.1" id="Layer_1" xmlns="http://www.w3.org/2000/svg" xmlns:xlink="http://www.w3.org/1999/xlink" x="0px" y="0px"
	 viewBox="0 0 200 100" style="enable-background:new 0 0 200 100;" xml:space="preserve">
<style type="text/css">
	.st0{fill:none;}
	.st1{fill:#FFFFFF;}
</style>
<g>
	<g>
		<path class="st1" d="M47.1,40.3c-1.9,0-4.1-0.9-5.9-2.6l-1.3,2.6c1.8,1.7,4.4,2.8,7.2,2.8c3.9,0,6.6-1.9,6.6-5.1
			c0-6.3-9.5-4.3-9.5-8.1c0-1.2,1.1-1.8,2.9-1.8c1.3,0,3.2,0.5,5.1,1.6l1.2-2.6c-1.6-1.1-3.9-1.8-6.1-1.8c-3.8,0-6.4,1.9-6.4,4.9
			c0,6.2,9.5,4.1,9.5,8C50.4,39.5,49.2,40.3,47.1,40.3z M58,39.2c0,2.7,1.7,3.9,3.7,3.9c1.1,0,2.2-0.4,3.3-1l-0.7-2.2
			c-0.8,0.4-1.4,0.6-2,0.6c-0.9,0-1.4-0.4-1.4-1.8v-6.4h3.9v-2.2h-3.9v-3.7H58v3.7h-1.9v2.2H58V39.2z M76.8,25.3l-3-1.3l-2.7,3.7
			h2.6L76.8,25.3z M77.1,39.2c-1,1-2.3,1.6-3.8,1.6c-2.1,0-3.7-1.3-4.1-3.3h10.1c0.4-4.8-1.6-7.9-6.2-7.9c-4,0-6.7,2.8-6.7,6.8
			c0,4,2.7,6.7,6.8,6.7c2.3,0,4.2-0.8,5.5-2.3L77.1,39.2z M73,31.8c2.2,0,3.6,1.3,3.7,3.5h-7.6C69.4,33.2,70.9,31.8,73,31.8z
			 M96.6,36.3c0-4.1-2.6-6.8-6.4-6.8c-2.1,0-3.7,0.9-4.7,2.4v-2.3h-2.9v18.2h2.9v-7.2c1,1.6,2.6,2.4,4.7,2.4
			C94.1,43.1,96.6,40.3,96.6,36.3z M85.6,36.2c0-2.5,1.7-4.3,4.1-4.3c2.4,0,4.1,1.8,4.1,4.3c0,2.6-1.7,4.4-4.1,4.4
			C87.2,40.6,85.6,38.8,85.6,36.2z M109.7,35.5V43h2.9v-8.3c0-3.2-1.9-5.1-5-5.1c-2.3,0-4,0.8-4.9,2.7v-7.9h-2.9V43h2.9v-6.6
			c0-2.4,1.4-4.1,3.8-4.2C108.5,32.2,109.7,33.5,109.7,35.5z M124.7,43h2.8l0-8.8c0-2.9-2-4.7-5.4-4.7c-2.5,0-3.9,0.6-5.7,1.7l1.2,2
			c1.3-0.9,2.7-1.4,3.9-1.4c2.1,0,3.2,1,3.2,2.7v0.4h-4c-3.2,0-5,1.6-5,4c0,2.4,1.8,4.1,4.7,4.1c1.9,0,3.5-0.6,4.4-1.8V43z
			 M124.7,38.3c-0.2,1.5-1.7,2.5-3.8,2.5c-1.6,0-2.6-0.8-2.6-2c0-1.3,0.9-1.8,2.8-1.8h3.6V38.3z M139.5,29.5c-2.3,0-4,0.8-4.9,2.7
			v-2.6h-2.9V43h2.9v-7.1c0.2-2.1,1.6-3.6,3.8-3.6c2,0,3.2,1.2,3.2,3.2V43h2.9v-8.3C144.5,31.5,142.7,29.5,139.5,29.5z M158.4,39.2
			c-1,1-2.3,1.6-3.8,1.6c-2.1,0-3.7-1.3-4.1-3.3h10.1c0.4-4.8-1.6-7.9-6.2-7.9c-4,0-6.7,2.8-6.7,6.8c0,4,2.7,6.7,6.8,6.7
			c2.3,0,4.2-0.8,5.5-2.3L158.4,39.2z M154.3,31.8c2.2,0,3.6,1.3,3.7,3.5h-7.6C150.7,33.2,152.2,31.8,154.3,31.8z M32.3,70.5
			c-3.5,0-6.3-2.7-6.3-6.2c0-3.5,2.8-6.2,6.3-6.2c1.8,0,3.6,0.9,4.9,2.2l1.7-2.2c-1.7-1.7-4.2-2.7-6.7-2.7c-5.2,0-9.2,3.8-9.2,8.8
			c0,5,4,8.9,9.1,8.9c2.5,0,5-1.1,6.8-2.9l-1.8-2C35.9,69.6,34.1,70.5,32.3,70.5z M49.3,59.6c-2.3,0-4,0.8-4.9,2.7v-7.9h-2.9v18.6
			h2.9v-6.6c0-2.4,1.4-4.1,3.8-4.2c2,0,3.2,1.2,3.2,3.2v7.5h2.9v-8.3C54.3,61.6,52.5,59.6,49.3,59.6z M63.9,59.6
			c-2.5,0-3.9,0.6-5.7,1.7l1.2,2c1.3-0.9,2.7-1.4,3.9-1.4c2.1,0,3.2,1,3.2,2.7v0.4h-4c-3.2,0-5,1.6-5,4c0,2.4,1.8,4.1,4.7,4.1
			c1.9,0,3.5-0.6,4.4-1.8v1.6h2.8l0-8.8C69.2,61.4,67.3,59.6,63.9,59.6z M66.4,68.4c-0.2,1.5-1.7,2.5-3.8,2.5c-1.6,0-2.6-0.8-2.6-2
			c0-1.3,0.9-1.8,2.8-1.8h3.6V68.4z M81.3,59.6c-2.3,0-4,0.8-4.9,2.7v-2.6h-2.9v13.3h2.9V66c0.2-2.1,1.6-3.6,3.8-3.6
			c2,0,3.2,1.2,3.2,3.2v7.5h2.9v-8.3C86.3,61.6,84.4,59.6,81.3,59.6z M99.8,61.9c-0.9-1.5-2.5-2.3-4.5-2.3c-3.5,0-5.9,2.6-5.9,6.3
			c0,3.8,2.4,6.4,6,6.4c2,0,3.5-0.8,4.4-2.3v1.7c0,2.3-1.7,3.8-4.2,3.8c-1.6,0-2.9-0.5-4.2-1.5l-1.2,2.1c1.6,1.1,3.5,1.8,5.5,1.8
			c4.2,0,6.9-2.4,6.9-6.2v-12h-2.9V61.9z M95.9,70.2c-2.3,0-3.9-1.7-3.9-4.1c0-2.4,1.6-4.1,3.9-4.1c2.3,0,3.8,1.7,3.8,4.1
			C99.8,68.5,98.2,70.2,95.9,70.2z M112.1,59.6c-2.5,0-3.9,0.6-5.7,1.7l1.2,2c1.3-0.9,2.7-1.4,3.9-1.4c2.1,0,3.2,1,3.2,2.7v0.4h-4
			c-3.2,0-5,1.6-5,4c0,2.4,1.8,4.1,4.7,4.1c1.9,0,3.5-0.6,4.4-1.8v1.6h2.8l0-8.8C117.4,61.4,115.5,59.6,112.1,59.6z M114.6,68.4
			c-0.2,1.5-1.7,2.5-3.8,2.5c-1.6,0-2.6-0.8-2.6-2c0-1.3,0.9-1.8,2.8-1.8h3.6V68.4z M124.6,62.4v-2.7h-2.9v13.3h2.9v-7
			c0.2-2.3,1.9-3.9,4.6-3.7v-2.8C127.1,59.6,125.5,60.6,124.6,62.4z M139.5,59.6c-2.3,0-4,0.8-4.9,2.7v-2.6h-2.9v13.3h2.9V66
			c0.2-2.1,1.6-3.6,3.8-3.6c2,0,3.2,1.2,3.2,3.2v7.5h2.9v-8.3C144.5,61.6,142.7,59.6,139.5,59.6z M150.2,54.2c-1,0-1.7,0.7-1.7,1.8
			c0,1,0.7,1.7,1.7,1.7c1,0,1.7-0.7,1.7-1.7C151.9,54.9,151.2,54.2,150.2,54.2z M148.8,73.1h2.9V59.7h-2.9V73.1z M161.3,59.6
			c-4,0-6.7,2.8-6.7,6.8c0,4,2.7,6.7,6.8,6.7c2.3,0,4.2-0.8,5.5-2.3l-1.5-1.6c-1,1-2.3,1.6-3.8,1.6c-2.1,0-3.7-1.3-4.1-3.3h10.1
			C167.9,62.7,166,59.6,161.3,59.6z M157.4,65.4c0.3-2.1,1.8-3.5,3.9-3.5c2.2,0,3.6,1.3,3.7,3.5H157.4z M173.8,62.4v-2.7h-2.9v13.3
			h2.9v-7c0.2-2.3,1.9-3.9,4.6-3.7v-2.8C176.3,59.6,174.7,60.6,173.8,62.4z"/>
	</g>
</g>
</svg>
