<?xml version="1.0" encoding="utf-8"?>
<!-- Generator: Adobe Illustrator 21.0.0, SVG Export Plug-In . SVG Version: 6.00 Build 0)  -->
<svg version="1.1" id="Layer_1" xmlns="http://www.w3.org/2000/svg" xmlns:xlink="http://www.w3.org/1999/xlink" x="0px" y="0px"
	 viewBox="0 0 200 100" style="enable-background:new 0 0 200 100;" xml:space="preserve">
<style type="text/css">
	.st0{fill:none;}
	.st1{fill:#11AAAA;}
</style>
<g>
	<g>
		<path class="st1" d="M15.3,40.1c1.9,0,3.6-0.7,4.9-2.1c1.3-1.3,2-3.1,2-5c0-1.9-0.7-3.7-2-5c-1.3-1.3-3.1-2.1-4.9-2.1
			c-1.9,0-3.6,0.7-4.9,2.1c-1.3,1.3-2,3.1-2,5c0,1.9,0.7,3.7,2,5C11.7,39.4,13.5,40.1,15.3,40.1z M13.9,31.6
			c0.4-0.4,0.9-0.6,1.4-0.6c0.5,0,1.1,0.2,1.4,0.6c0.4,0.4,0.6,0.9,0.6,1.5s-0.2,1.1-0.6,1.5c-0.4,0.4-0.9,0.6-1.4,0.6
			c-0.5,0-1.1-0.2-1.4-0.6c-0.4-0.4-0.6-0.9-0.6-1.5S13.5,32,13.9,31.6z M29.2,37.3c-1.4-1-3.2-0.6-4.2,0.7c-1.2,1.7-2.5,2.9-4,3.8
			c-0.1,0.1-0.3,0.2-0.4,0.2c-0.1,0.1-0.3,0.1-0.4,0.2c-1.4,0.7-2.9,1-4.7,1c-1.8-0.1-3.3-0.4-4.7-1C8.9,41.4,7.4,40,6,38
			c-1-1.4-2.8-1.7-4.2-0.7c-1.4,1-1.7,2.9-0.7,4.3c2,2.8,4.4,4.9,7.2,6.2c0.5,0.3,1.1,0.5,1.7,0.7c-2.4,1.7-4.9,4.1-6.1,7.4
			c-1.3,3.4-1.2,7.2,0,10.5c1.2,3.2,3.5,5.8,6.5,7.3c3.3,1.7,7.4,1.7,11.1,0c3.9-1.8,6.4-5,6.8-8.7c0.4-3.9-1.4-7.3-4.6-8.7
			c-3.3-1.5-7-0.4-9.5,2.7c-1,1.3-0.8,3.2,0.5,4.3c1.3,1,3.2,0.8,4.2-0.5c0.7-0.9,1.6-1.3,2.3-1c0.6,0.3,1.3,1.1,1.1,2.6
			c-0.1,1.4-1.4,2.9-3.2,3.7c-2,0.9-4.3,1-5.9,0.1c-1.6-0.8-2.9-2.3-3.6-4.1c-0.5-1.4-1-3.5,0-6.1c0.7-1.9,2.5-3.8,5.7-5.8
			c1.3-0.8,2.8-1.6,4.2-2.4c1.6-0.9,3.1-1.7,4.4-2.6c2.4-1.3,4.5-3.2,6.2-5.8C30.9,40.2,30.5,38.3,29.2,37.3z M58.3,39.1
			c-0.9-0.2-1.9-0.4-2.6-0.4c-5,0-8.5,2.5-8.5,8.7c0,3,0.8,5.5,3.1,6.9c-1.5,1.1-3.2,3-3.2,4.2c-0.1,1.2,1.1,2,3.1,2.5
			c-2.2,1.3-3.9,3.1-3.9,5.4c0,2.4,1.3,5.3,8.3,5.3c6.8,0,9.8-3.6,9.8-7.6c0-3.7-3.1-5-6.4-5.4c-3.9-0.5-6.5-0.6-6.5-1.4
			c0-0.6,0.7-1.4,1.3-2.1c0.7,0.1,1.4,0.2,2.3,0.2c6,0,8.3-3.2,8.3-8.1c0-2.3-0.8-4.1-2-5.2c0.7,0.1,1.3,0.2,1.9,0.2
			c0.9,0,1.4-0.5,1.4-1.5c0-0.8-0.2-1.4-0.4-1.8H58.3z M53.3,61.6c0.3,0,0.6,0.1,1,0.1c4.5,0.3,5.9,0.9,5.9,3c0,1.6-1.6,3.6-5.2,3.6
			c-3.5,0-4.3-1.2-4.3-2.6C50.6,64.1,51.9,62.6,53.3,61.6z M55.4,52.6c-3.2,0-3.8-2.1-3.8-5.4c0-4.1,1.7-5.7,4-5.7
			c2.5,0,3.7,1.4,3.7,4.8C59.3,50.3,58.1,52.6,55.4,52.6z M77.1,38.7c-4.8,0-8.2,0.6-9,1.1c-0.4,0.2-0.5,0.7-0.5,1.2
			c0,0.3,0.1,1.6,0.6,2.4c1.6-0.6,4.9-1.1,7.2-1.1c1.6,0,2.7,0.6,2.7,2.7V49c-1-0.5-2.6-0.6-3.9-0.6c-3.3,0-6.7,1.2-6.7,7.6
			c0,7,3.6,7.3,7.3,7.3c3.3,0,5.8-0.7,7.1-1.5c0,0,0.3-6.6,0.3-14.7v-2.7C82.3,40.2,80.4,38.7,77.1,38.7z M78,59.4
			c-0.5,0.5-1.7,0.7-2.8,0.7c-2,0-3.3-0.2-3.3-4.2c0-4.1,1.7-4.7,3.8-4.7c0.7,0,1.7,0.1,2.4,0.4C78.1,55,78,59.4,78,59.4z
			 M96.3,38.7c-2.8,0-6.5,0.7-8.5,1.5v22.3c4.3,0,4.2,0,4.2-0.8V42.9c1.1-0.6,2.7-0.9,3.9-0.9c2.7,0,3,1.4,3,5v15.5
			c4.4,0,4.3,0,4.3-0.8V47.2C103.2,40.8,102.5,38.7,96.3,38.7z M119,30.2v9.4c-0.9-0.6-2.1-0.9-3.6-0.9c-4.4,0-7.9,3.9-7.9,13.1
			c0,10.1,3.5,11.4,8.4,11.4c3.2,0,5.6-0.5,7.3-1.4V28.5C119.8,28.5,119,28.5,119,30.2z M119,59.2c-0.8,0.5-1.9,0.7-3,0.7
			c-2.4,0-3.8-1-3.8-8.5c0-7.6,2.3-9.4,4.5-9.4c1.1,0,1.7,0.1,2.4,0.6V59.2z M131,28.7c-1.6,0-2.4,1.1-2.4,2.8
			c-0.1,2.2,0.8,2.9,2.1,2.9c1.5,0,2.3-1.1,2.4-3C133.1,29.4,132.6,28.7,131,28.7z M128.7,41.1v21.4c4.2,0,4.3,0,4.3-0.8V39.4
			C129.6,39.4,128.7,39.4,128.7,41.1z M141.4,57.7c-1.7,0-2.6,1.3-2.6,2.7c0,1.6,0.6,2.6,2.6,2.6c1.6,0,2.6-1.2,2.6-2.6
			C144,58.7,143.3,57.7,141.4,57.7z M157.7,38.7c-2.8,0-6.5,0.7-8.5,1.5v22.3c4.3,0,4.2,0,4.2-0.8V42.9c1.1-0.6,2.7-0.9,3.9-0.9
			c2.7,0,3,1.4,3,5v15.5c4.4,0,4.3,0,4.3-0.8V47.2C164.6,40.8,163.9,38.7,157.7,38.7z M184.4,46.3c0-5-2.2-7.6-6.5-7.6
			c-4.6,0-9.1,1.4-9.1,13.5c0,9.4,3.4,11.1,8.2,11.1c3.9,0,7.1-1.1,7.1-1.8c0-1-0.1-2.6-0.4-3.3c-1.7,0.9-3.8,1.4-6.3,1.4
			c-2.8,0-4.2-0.8-4.4-6.4c2.5,0,7.2-0.1,10.7-0.7C184.3,50.8,184.4,48.4,184.4,46.3z M180.1,49.6c-1.8,0.5-5,0.6-7,0.5
			c0.3-6.4,2.2-8.1,4.3-8.1c2.2,0,2.9,1.4,2.9,4.7C180.4,47.6,180.3,48.8,180.1,49.6z M197.1,60.1c-1.8,0-1.8-1.7-1.8-3.7V42.7h4.4
			c0.8,0,0.8-0.3,0.8-3.2h-5.2v-8.3c-3.4,0-4.2,0-4.2,1.3v7h-2.6c-0.9,0-0.9,0.4-0.9,3.2h3.5V56c0,4.2,0,7.3,4.9,7.3
			c2,0,4.4-0.4,4.4-1.5c0-0.9-0.2-1.9-0.3-2.5C199,59.8,198.6,60.1,197.1,60.1z"/>
	</g>
</g>
</svg>
