<?xml version="1.0" encoding="utf-8"?>
<!-- Generator: Adobe Illustrator 21.0.0, SVG Export Plug-In . SVG Version: 6.00 Build 0)  -->
<svg version="1.1" id="Layer_1" xmlns="http://www.w3.org/2000/svg" xmlns:xlink="http://www.w3.org/1999/xlink" x="0px" y="0px"
	 viewBox="0 0 210 80" style="enable-background:new 0 0 210 80;" xml:space="preserve">
<style type="text/css">
	.st0{fill:#33CCFF;}
</style>
<path id="path7"  class="st0" d="M130.8,47C130.8,47,130.8,47,130.8,47L130.8,47
	C130.9,47,130.8,47,130.8,47L130.8,47z"/>
<path id="path9"  class="st0" d="M22.9,54.6c0,1.1-0.4,2-1.1,2.7c-0.8,0.8-1.7,1.1-2.7,1.1h-7.6
	c-3.2,0-5.9-1.1-8.1-3.4C1.1,52.8,0,50.1,0,47V31.6c0-1.1,0.4-2,1.1-2.7c0.7-0.7,1.7-1.1,2.7-1.1c1,0,1.9,0.4,2.7,1.1
	c0.7,0.7,1.1,1.6,1.1,2.7v5.6h10.8c1,0,1.8,0.3,2.5,1c0.7,0.7,1.1,1.5,1.1,2.5c0,1-0.3,1.8-1,2.5c-0.7,0.7-1.5,1-2.5,1H7.7V47
	c0,1.1,0.4,1.9,1.1,2.7c0.7,0.7,1.6,1.1,2.7,1.1h7.6c1.1,0,2,0.4,2.7,1.1C22.5,52.6,22.9,53.5,22.9,54.6z"/>
<path id="path11"  class="st0" d="M111.9,54.6c0,1.1-0.4,2-1.1,2.7c-0.8,0.8-1.7,1.1-2.7,1.1h-3.4
	c-3.2,0-5.9-1.1-8.1-3.4c-2.2-2.2-3.4-4.9-3.4-8.1V31.6c0-1.1,0.4-2,1.1-2.7c0.7-0.7,1.7-1.1,2.7-1.1c1,0,1.9,0.4,2.7,1.1
	c0.7,0.7,1.1,1.6,1.1,2.7v5.6h6.7c1,0,1.8,0.3,2.5,1c0.7,0.7,1.1,1.5,1.1,2.5c0,1-0.3,1.8-1,2.5c-0.7,0.7-1.5,1-2.5,1h-6.7V47
	c0,1.1,0.4,1.9,1.1,2.7c0.7,0.7,1.6,1.1,2.7,1.1h3.5c1.1,0,2,0.4,2.7,1.1C111.5,52.6,111.9,53.5,111.9,54.6L111.9,54.6z"/>
<path id="path13"  class="st0" d="M91.8,54.6c0,1.1-0.4,2-1.1,2.7c-0.8,0.8-1.7,1.1-2.7,1.1h-3.4
	c-3.2,0-5.9-1.1-8.1-3.4C74.1,52.8,73,50.1,73,47V31.6c0-1.1,0.4-2,1.1-2.7c0.7-0.7,1.7-1.1,2.7-1.1c1,0,1.9,0.4,2.7,1.1
	c0.7,0.7,1.1,1.6,1.1,2.7v5.6h6.7c1,0,1.8,0.3,2.5,1c0.7,0.7,1.1,1.5,1.1,2.5c0,1-0.3,1.8-1,2.5c-0.7,0.7-1.5,1-2.5,1h-6.7V47
	c0,1.1,0.4,1.9,1.1,2.7c0.7,0.7,1.6,1.1,2.7,1.1h3.5c1.1,0,2,0.4,2.7,1.1C91.4,52.6,91.8,53.5,91.8,54.6z"/>
<path id="path15"  class="st0" d="M59.9,47.7c0,3-1,5.5-3.1,7.6c-2.1,2.1-4.6,3.1-7.6,3.1
	c-2.7,0-5.1-0.9-7.1-2.7c-2,1.8-4.4,2.7-7.1,2.7c-3,0-5.5-1-7.6-3.1c-2.1-2.1-3.1-4.6-3.1-7.6v-7.5c0-1,0.4-1.9,1.1-2.5
	c0.7-0.7,1.5-1,2.5-1c1,0,1.8,0.3,2.5,1c0.7,0.7,1.1,1.5,1.1,2.6v7.5c0,1,0.3,1.8,1,2.5c0.7,0.7,1.5,1,2.5,1c1,0,1.8-0.3,2.5-1
	c0.7-0.7,1-1.5,1-2.5v-7.4c0-1,0.4-1.8,1.1-2.6c0.7-0.7,1.6-1.1,2.6-1.1c1,0,1.8,0.4,2.5,1.1c0.7,0.7,1.1,1.5,1.1,2.5v7.5
	c0,1,0.3,1.8,1,2.5c0.7,0.7,1.5,1,2.5,1c1,0,1.8-0.3,2.5-1c0.7-0.7,1-1.5,1-2.5v-7.5c0-1,0.4-1.8,1.1-2.5c0.7-0.7,1.5-1.1,2.5-1.1
	c1,0,1.8,0.4,2.5,1.1c0.7,0.7,1.1,1.5,1.1,2.5L59.9,47.7L59.9,47.7z"/>
<path id="path17"  class="st0" d="M70.3,30.8c0,1-0.4,2-1.1,2.7c-0.8,0.7-1.7,1.1-2.7,1.1
	c-1.1,0-2-0.4-2.7-1.1c-0.8-0.7-1.1-1.7-1.1-2.7c0-1.1,0.4-2,1.1-2.7c0.8-0.8,1.7-1.1,2.7-1.1c1.1,0,2,0.4,2.7,1.1
	C69.9,28.9,70.3,29.8,70.3,30.8z"/>
<path id="path19"  class="st0" d="M70.3,54.6c0,1.1-0.4,2-1.1,2.7c-0.8,0.8-1.7,1.1-2.7,1.1
	c-1.1,0-2-0.4-2.7-1.1c-0.8-0.8-1.1-1.7-1.1-2.7V40.5c0-1.1,0.4-2,1.1-2.7c0.8-0.8,1.7-1.1,2.7-1.1c1.1,0,2,0.4,2.7,1.1
	c0.8,0.7,1.1,1.7,1.1,2.7C70.3,40.5,70.3,54.6,70.3,54.6z"/>
<path id="path21"  class="st0" d="M157.5,40.7c0,1-0.3,1.8-1.1,2.5c-0.7,0.7-1.5,1-2.5,1h-5.2
	c-1,0-1.8,0.3-2.5,1c-0.7,0.7-1,1.5-1,2.5v7.1c0,1-0.3,1.8-1,2.5c-0.7,0.7-1.5,1-2.5,1c-1,0-1.8-0.3-2.5-1c-0.7-0.7-1-1.5-1-2.5
	v-7.1c0-2.9,1-5.4,3.1-7.5c2.1-2.1,4.6-3.1,7.5-3.1h5.2c1,0,1.8,0.3,2.5,1C157.2,38.9,157.5,39.8,157.5,40.7L157.5,40.7z"/>
<path id="path23"  class="st0" d="M123.9,58.4c-3,0-5.9-1.1-8.1-3.4c-2.2-2.3-3.1-4.8-3.1-8
	c0,0-0.2-10.3,11.4-10.3c9.1,0,11.9,6.4,11.9,9.6c0,2.5-1.1,3.4-3.8,3.4h-11.6c0,0-0.4,2.7,4.9,2.7h6.6c1.7,0,3.1,1.4,3.1,3.1
	c0,1.7-1.4,3.1-3.1,3.1L123.9,58.4L123.9,58.4z M120.6,44.7h7.6c0-2.5-3.8-2.5-3.8-2.5S120.6,42.2,120.6,44.7z"/>
<path id="path25"  class="st0" d="M209.3,41.1c-2,0.3-4.9,0-6.4-0.6c3.2-0.3,5.3-1.7,6.1-3.7
	c-1.1,0.7-4.7,1.5-6.6,0.7c-0.1-0.5-0.2-0.9-0.3-1.3c-1.5-5.5-6.6-9.9-11.9-9.4c0.4-0.2,0.9-0.3,1.3-0.5c0.6-0.2,4-0.8,3.5-2
	c-0.5-1.1-4.7,0.8-5.5,1.1c1-0.4,2.8-1.1,3-2.3c-1.6,0.2-3.2,1-4.4,2.1c0.4-0.5,0.8-1.1,0.8-1.7c-4.3,2.7-6.8,8.3-8.8,13.6
	c-1.6-1.5-3-2.8-4.3-3.4c-3.5-1.9-7.8-3.9-14.5-6.4c-0.2,2.2,1.1,5.1,4.8,7.1c-0.8-0.1-2.3,0.1-3.5,0.4c0.5,2.5,2.1,4.6,6.3,5.6
	c-1.9,0.1-3,0.6-3.9,1.5c0.9,1.8,3,3.8,6.9,3.4c-4.3,1.9-1.8,5.3,1.8,4.8c-6,6.2-15.5,5.7-20.9,0.6c14.2,19.3,45,11.4,49.6-7.2
	C206.1,43.6,208.1,42.4,209.3,41.1L209.3,41.1z"/>
</svg>
