<?xml version="1.0" encoding="utf-8"?>
<!-- Generator: Adobe Illustrator 21.0.0, SVG Export Plug-In . SVG Version: 6.00 Build 0)  -->
<svg version="1.1" id="Layer_1" xmlns="http://www.w3.org/2000/svg" xmlns:xlink="http://www.w3.org/1999/xlink" x="0px" y="0px"
	 viewBox="0 0 210 80" style="enable-background:new 0 0 210 80;" xml:space="preserve">
<style type="text/css">
	.st0{filter:url(#Adobe_OpacityMaskFilter);}
	.st1{fill:#FFFFFF;}
	.st2{mask:url(#SVGID_1_);fill:url(#SVGID_2_);}
</style>
<defs>
	<filter id="Adobe_OpacityMaskFilter" filterUnits="userSpaceOnUse" x="-2" y="4" width="216.6" height="68.8">
		<feColorMatrix  type="matrix" values="1 0 0 0 0  0 1 0 0 0  0 0 1 0 0  0 0 0 1 0"/>
	</filter>
</defs>
<mask maskUnits="userSpaceOnUse" x="-2" y="4" width="216.6" height="68.8" id="SVGID_1_">
	<g class="st0">
		<g>
			<path class="st1" d="M35.6,28.3c-0.5-1.2-1.1-2.2-2.1-3.2c-1-1-2-1.6-3.2-2.1c-1.2-0.5-2.5-0.8-4.4-0.9c-2-0.1-2.6-0.1-7.5-0.1
				c-5,0-5.6,0-7.5,0.1c-1.9,0.1-3.3,0.4-4.4,0.9c-1.2,0.5-2.2,1.1-3.2,2.1c-1,1-1.6,2-2.1,3.2c-0.5,1.2-0.8,2.5-0.9,4.4
				C0,34.7,0,35.3,0,40.3c0,5,0,5.6,0.1,7.5c0.1,1.9,0.4,3.3,0.9,4.4c0.5,1.2,1.1,2.2,2.1,3.2c1,1,2,1.6,3.2,2.1
				c1.2,0.5,2.5,0.8,4.4,0.9c2,0.1,2.6,0.1,7.5,0.1c5,0,5.6,0,7.5-0.1c1.9-0.1,3.3-0.4,4.4-0.9c1.2-0.5,2.2-1.1,3.2-2.1
				c1-1,1.6-2,2.1-3.2c0.5-1.2,0.8-2.5,0.9-4.4c0.1-2,0.1-2.6,0.1-7.5c0-5,0-5.6-0.1-7.5C36.4,30.8,36.1,29.5,35.6,28.3z M33.2,47.7
				c-0.1,1.8-0.4,2.8-0.6,3.4c-0.3,0.9-0.7,1.5-1.4,2.1c-0.6,0.6-1.2,1-2.1,1.4c-0.6,0.3-1.6,0.5-3.4,0.6c-1.9,0.1-2.5,0.1-7.4,0.1
				c-4.9,0-5.5,0-7.4-0.1c-1.8-0.1-2.8-0.4-3.4-0.6c-0.9-0.3-1.5-0.7-2.1-1.4c-0.6-0.6-1-1.2-1.4-2.1c-0.3-0.6-0.5-1.6-0.6-3.4
				c-0.1-1.9-0.1-2.5-0.1-7.4c0-4.9,0-5.5,0.1-7.4c0.1-1.8,0.4-2.8,0.6-3.4c0.3-0.9,0.7-1.5,1.4-2.1c0.6-0.6,1.2-1,2.1-1.4
				c0.6-0.3,1.6-0.5,3.4-0.6c1.9-0.1,2.5-0.1,7.4-0.1c4.9,0,5.5,0,7.4,0.1c1.8,0.1,2.8,0.4,3.4,0.6c0.9,0.3,1.5,0.7,2.1,1.4
				c0.6,0.6,1,1.2,1.4,2.1c0.3,0.6,0.5,1.6,0.6,3.4c0.1,1.9,0.1,2.5,0.1,7.4C33.3,45.2,33.3,45.7,33.2,47.7z"/>
			<path class="st1" d="M18.3,30.9c-5.2,0-9.4,4.2-9.4,9.4c0,5.2,4.2,9.4,9.4,9.4s9.4-4.2,9.4-9.4C27.7,35.1,23.5,30.9,18.3,30.9z
				 M18.3,46.4c-3.4,0-6.1-2.7-6.1-6.1s2.7-6.1,6.1-6.1s6.1,2.7,6.1,6.1S21.7,46.4,18.3,46.4z"/>
			<circle class="st1" cx="28" cy="30.5" r="2.2"/>
			<path class="st1" d="M209.4,46.3c0,0-0.5,0-0.7,0.6c-0.2,0.6-0.5,1.9-0.7,2.6c-0.2,0.6-0.8,2-1.8,1.9c-1-0.1-2.8-1-2-15.2
				c0,0,0.4-1.7-2.4-2.6c0,0-2.3-1.1-3.1,0.4c-0.8,1.5-2.8,7.3-3.3,10.9c0,0,0,0.1,0,0.1c0,0-0.1,0-0.1-0.1c0,0-0.5-5.5-0.4-8.9
				c0-2-2.3-2.6-2.3-2.6s-2-0.7-2.7,0.4c-0.7,1.3-1.5,3.2-3.1,8.1v-7.3c0,0,0.3-0.8-1.9-1.2l-1.6-0.2c0,0-0.7,0-0.8,0.8l0,12.9
				l0,0.7c-0.7,1.8-1.8,4-3.1,4c-1.3,0.1-1.8-1.4-2.1-4.1c-0.2-4.5,0.1-12.2,0.1-12.2c0.1-0.6-0.6-1.3-2.5-1.6
				c-1.9-0.3-1.8,0.9-1.8,0.9l-0.1,1c-1.5-2.7-4.2-2.6-4.2-2.6c-4.5,0-6.5,5.2-7,9.6c-0.4,3.3,0.4,6.2,0.4,6.2s-0.6,2.5-2.4,2.9
				c-1.8,0.4-2.4-3-2.6-5.2c-0.2-2.2,1.1-7.8,1.1-7.8s0.4-0.7,0.3-1.6c-0.1-2.5-2.3-2.2-3.9-1.8c-1.6,0.4-3.5,0.6-3.5,0.6
				c0.4-1.3,0.3-3.3-2-3.3c-2.2,0-3,1.8-3.1,3.3c-0.1,1.5,1.3,2.5,1.3,2.5c-1,5.2-5,10.6-5,10.6s0.2-13.1,0.2-13.9
				c0-0.7-0.3-0.9-1.1-1.2c-0.8-0.3-1.6-0.4-1.6-0.4c-1.8-0.3-1.7,0.9-1.7,0.9l0,0.9c-1.6-2.8-5-2.6-5-2.6s-7.7,1.7-6,15.7
				c-0.5,1.4-1.3,2.9-2.5,3.1c-1.3,0.1-1.8-1.5-2.1-4.1c-0.2-4.6,0.2-12.3,0.2-12.3c0.1-0.6-0.6-1.4-2.5-1.7
				c-1.9-0.3-1.8,0.9-1.8,0.9l-0.1,1c-1.5-2.8-4.2-2.7-4.2-2.7c-4.5,0-6.5,5.2-7,9.6c-0.1,1.2-0.1,2.2-0.1,3.1l0,0
				c0,0-1.5,5.5-3.9,5.4c-1.8,0-1.9-4.4-1.9-6.3l0.4-12.2l5.7-0.1c0,0,0.7-0.3,0.8-1.4c0.2-1.1-0.1-1.3-0.7-1.4
				c-0.7-0.1-5.7-0.3-5.7-0.3l0.2-5.5c0,0,0-0.5-2-1c-2-0.5-2.7-0.4-2.9,0.7c0,0.8-0.2,5.5-0.2,5.5l-4.6-0.1c0,0-0.9,0.7-0.9,2.4
				c0.1,0.9,0.4,0.9,0.4,0.9l4.8,0.1l-0.1,10.5c0,0-0.2,3.1-3.5,5.9c0,0,0.3-0.8,0.1-2c-0.3-2.5-2.5-4.2-7-7.4c0,0,2.3-2.6,2.3-4.7
				c0.1-1.9-2.2-1.8-2.2-1.8s-1.5,0.1-2.6,1c-1.8,1.3-3,4.3-0.7,6.7c0,0-5.1,9.8-6.5,9.5c-0.6-0.1-0.9-1.1-0.9-3.7s0.3-9.8,0.3-9.8
				s0.3-1.5-1.8-2.5c-2-1-5.4-3.1-9.9,10.1l0.1-9.6c0,0,0.1-0.6-1.7-1c-1.7-0.5-2.3-0.2-2.3,0.3l-0.1,16.6c0,0-0.1,3.5,1.7,3.5
				c1.8,0.1,1.2,0.1,1.7,0.1c0.5,0,0.9-0.2,0.9-0.5c0-0.2,1.5-11.4,6.6-16.8c0,0,0.3-0.2,0.3,0.2c0,0.4-0.4,7.3-0.3,11.4
				c0.1,4.1,1.4,5.5,2.7,5.7c1,0.1,3.6-0.5,6.1-4.7c1.1-1.9,2.5-4.1,4.4-7.3c0,0,1,0.9,2.4,2.1c1.3,1.2,2.3,2.7,2.2,4.1
				c-0.1,1.4-0.5,2.7-2.2,2.8c-1.3,0-2.5-1.1-2.5-1.1s-0.8-0.6-1.2-0.6c-0.4,0-0.9,0.4-1.6,1.3c-0.6,0.9-0.5,1.2-0.5,1.5
				c0,0.3,0.6,2.2,6,2.2c5.3,0,8.2-4.4,9.6-7.9c0,0,0.2,7.8,5.3,7.8c2.7,0,4.5-3.3,5.3-5.1c0.1-0.2,0.1-0.3,0.1-0.4
				c0.1,0.6,0.4,1.6,0.8,2.3c0,0,1.3,3.3,4.5,3.4c4.7,0.1,6.4-4.4,6.4-4.4c0.1,0.6,0.7,4,4.1,4.4c2.4,0.3,3.9-2,4.6-3.4
				c2.2,3.9,4.9,3.4,4.9,3.4s3.4,0.2,5.7-3.5l0.1,2.1c0,0-1.4,1.3-4.9,4.5c-3.5,3.3-4.3,5.7-4.2,7.1c0,0-0.3,4.5,5.5,4.9
				c6.8-0.5,7.4-7.3,7.4-12.3c0-2.6,0-5,0-5c6.5-7.6,8-13.7,8-13.7s2.7-0.1,3.1,0c0.4,0,0.2,0.5,0.2,0.5s-0.7,2.3-0.9,7
				s2.4,8.3,5.5,8.4c3.1,0.1,4.4-3.3,4.4-3.3s1.3,3.3,4.5,3.3c4.7,0,6.4-4.4,6.4-4.4c0,0.6,0.7,4.1,4.1,4.4c2.3,0.1,3.7-1.7,4.5-3.2
				l0.1,1.9c0,0-0.1,1.1,2.2,1.3c0,0,2.7,0.5,2.7-1.1c0-1.6,0-9.3,3.2-14.6c0,0,0.4-0.4,0.4,0.1s0.4,9.9,1.1,11.5
				c0.5,1.7,2,3.1,4.3,2.1c0.3-0.2,0.3-0.6,0.3-0.6s0-1.8,0.4-4c0.5-3,1.4-6.8,2.8-9.4c0.1-0.2,0.1,0,0.1,0s-0.2,3.8,0,7.1
				c0.3,4.5,1.3,8.9,5.5,8.8c0,0,4.4,0.1,4.4-7.1C210,46.4,209.4,46.3,209.4,46.3z M114.8,51.4c-1.4-0.2-3.1-1.8-2.7-8.2
				c0.4-6.4,2.7-7,3.7-7.1c0,0,3.3-0.4,3.1,6.4C118.7,49.3,116.2,51.6,114.8,51.4z M134.5,51.6c-1.5-0.2-3.2-1.9-2.8-8.3
				c0.6-6.2,3.1-7.1,4.1-7.1c0,0,3-0.5,2.9,6.4C138.5,49.4,136,51.8,134.5,51.6z M139.1,60.2c-0.1,3.5-0.6,7.5-3.9,7.1
				c-2.7-0.1-2.2-3-2.2-3s0.5-3.5,6.2-8.4C139.2,56,139.1,58.6,139.1,60.2z M169.2,51.6c-1.4-0.2-3.1-1.8-2.7-8.2
				c0.4-6.4,2.7-7,3.7-7.1c0,0,3.3-0.4,3.1,6.4C173.2,49.5,170.7,51.8,169.2,51.6z"/>
			<path class="st1" d="M56.7,24c0,0-0.1-0.8-1.5-1.3c-1.5-0.5-2.1-0.4-2.1-0.4s-1.9,0.1-5.1,3.2c-3.1,3.1-4.3,7.4-4.4,9.3
				c0,0,0,1.5,0.6,2.9c0.8,1.9,3,3.5,4.4,3.6c0,0,0.6,0,0.6-0.6c0-0.5-0.3-0.8-0.3-0.8s-1.4-1.7-1.4-5c0.1-2.2,0.6-6.7,4.3-9.9
				c0.4-0.1,0.3,0.3,0.3,0.3l-0.1,24.3c0,0,0.1,4.2-0.9,6.6c0,0-0.3,0.9-0.3,1.3c0,0.4,0.2,0.4,0.5,0.4c0.1,0,1-0.1,2-1
				c1.9-1.7,3.5-4.1,3.3-10.4V24z"/>
		</g>
	</g>
</mask>
<linearGradient id="SVGID_2_" gradientUnits="userSpaceOnUse" x1="-2" y1="38.4111" x2="214.6309" y2="38.4111">
	<stop  offset="0" style="stop-color:#FCD371"/>
	<stop  offset="0.2567" style="stop-color:#F5933D"/>
	<stop  offset="0.4459" style="stop-color:#E64664"/>
	<stop  offset="0.5885" style="stop-color:#C32F92"/>
	<stop  offset="0.6958" style="stop-color:#8D3CA5"/>
	<stop  offset="1" style="stop-color:#5262D1"/>
</linearGradient>
<rect x="-2" y="4" class="st2" width="216.6" height="68.8"/>
</svg>
