<?xml version="1.0" encoding="utf-8"?>
<!-- Generator: Adobe Illustrator 21.0.0, SVG Export Plug-In . SVG Version: 6.00 Build 0)  -->
<svg version="1.1" xmlns="http://www.w3.org/2000/svg" xmlns:xlink="http://www.w3.org/1999/xlink" x="0px" y="0px"
	 viewBox="0 0 210 80" style="enable-background:new 0 0 210 80;" xml:space="preserve">
<style type="text/css">
	.st0{fill:#666666;}
</style>
<g id="Layer_2">
</g>
<g id="Layer_1">
	<g>
		<g>
			<g>
				<g>
					<g>
						<polygon class="st0" points="0,21.9 8.2,21.9 8.2,51.8 23.4,51.8 23.4,59.3 0,59.3 						"/>
						<g>
							<path class="st0" d="M27,33.9h7.9v25.4H27V33.9z M31,21.3c2.5,0,4.6,2.1,4.6,4.6s-2.1,4.6-4.6,4.6s-4.6-2-4.6-4.6
								C26.4,23.4,28.5,21.3,31,21.3"/>
						</g>
						<polygon class="st0" points="67.9,21.9 75.8,21.9 75.8,44.3 84.7,33.9 94.4,33.9 84,45.7 94.2,59.3 84.3,59.3 75.9,46.8 
							75.8,46.8 75.8,59.3 67.9,59.3 						"/>
						<path class="st0" d="M39.3,33.9h7.6v3.5H47c1.1-2,3.6-4.1,7.5-4.1c8,0,9.5,5.3,9.5,12.1v13.9h-8V47c0-2.9-0.1-6.7-4.1-6.7
							c-4.1,0-4.7,3.2-4.7,6.5v12.6h-7.9V33.9L39.3,33.9z"/>
						<path class="st0" d="M111,43.7c0.1-2.6-2-4.8-4.8-4.8c-3.5,0-5.4,2.4-5.6,4.8H111z M117.7,54.9c-2.5,3.2-6.7,5.1-10.8,5.1
							c-7.9,0-14.2-5.3-14.2-13.4c0-8.2,6.3-13.4,14.2-13.4c7.4,0,12,5.3,12,13.4V49h-18.3c0.6,3,2.9,4.9,5.9,4.9
							c2.6,0,4.3-1.3,5.6-3.1L117.7,54.9z"/>
						<path class="st0" d="M135.3,40.1c-3.9,0-6.3,2.6-6.3,6.5c0,3.8,2.4,6.5,6.3,6.5c3.9,0,6.3-2.6,6.3-6.5S139.3,40.1,135.3,40.1
							 M148.9,59.3h-7.3V56h-0.1c-1.2,1.8-4.3,4-7.8,4c-7.6,0-12.6-5.5-12.6-13.2c0-7.1,4.4-13.6,11.7-13.6c3.3,0,6.3,0.9,8.1,3.4
							h0.1V21.9h7.9V59.3L148.9,59.3z"/>
					</g>
					<g>
						<path class="st0" d="M206.1,14h-45.3c-2.2,0-3.9,1.7-3.9,3.8v45.5c0,2.1,1.8,3.8,3.9,3.8h45.3c2.2,0,3.9-1.7,3.9-3.8V17.8
							C210,15.7,208.2,14,206.1,14z M172.6,59.3h-7.9V33.9h7.9V59.3z M168.6,30.5c-2.5,0-4.6-2.1-4.6-4.6s2.1-4.6,4.6-4.6
							s4.6,2.1,4.6,4.6S171.1,30.5,168.6,30.5z M202.2,59.3h-7.9V47c0-2.9-0.1-6.7-4.1-6.7c-4.1,0-4.7,3.2-4.7,6.5v12.6h-7.9
							l-0.1-25.5h7.6v3.5h0.1c1.1-2,3.6-4.1,7.5-4.1c8,0,9.5,5.3,9.5,12.1V59.3z"/>
					</g>
				</g>
			</g>
		</g>
	</g>
</g>
</svg>
