<?xml version="1.0" encoding="utf-8"?>
<!-- Generator: Adobe Illustrator 21.0.0, SVG Export Plug-In . SVG Version: 6.00 Build 0)  -->
<svg version="1.1" id="Layer_1" xmlns="http://www.w3.org/2000/svg" xmlns:xlink="http://www.w3.org/1999/xlink" x="0px" y="0px"
	 viewBox="0 0 210 80" style="enable-background:new 0 0 210 80;" xml:space="preserve">
<style type="text/css">
	.st0{fill:#FFFFFF;}
	.st1{fill:#F49D22;}
</style>
<g>
	<path id="path3421" class="st0" d="M0,28.5h4.7l11.6,25.3l11.4-25.3h4.7L16.7,63.2h-0.8L0,28.5z"/>
	<path id="path3431" class="st0" d="M38.5,28.5h4.4v34.7h-4.4V28.5z M40.7,15c1,0,1.9,0.4,2.6,1.1c0.7,0.7,1.1,1.6,1.1,2.6
		s-0.4,1.9-1.1,2.6c-0.7,0.7-1.6,1.1-2.6,1.1s-1.8-0.4-2.6-1.1c-0.7-0.7-1.1-1.6-1.1-2.6s0.4-1.9,1.1-2.6C38.9,15.4,39.7,15,40.7,15
		"/>
	<g id="g3433" transform="translate(395.4839,36.9747)">
		<path id="path3435" class="st0" d="M-238.8,5.6c-0.6-2.3-1.4-4.1-2.4-5.4c-1.1-1.4-2.5-2.4-4.2-3.3c-1.8-0.8-3.6-1.2-5.5-1.2
			c-3.2,0-5.9,1-8.2,3.1c-1.7,1.5-2.9,3.8-3.8,6.8H-238.8z M-238.8,14.5l3.5,1.9c-1.2,2.3-2.5,4.2-4,5.6c-1.5,1.4-3.2,2.5-5.1,3.2
			c-1.9,0.7-4,1.1-6.4,1.1c-5.3,0-9.4-1.8-12.4-5.3s-4.5-7.5-4.5-12c0-4.2,1.3-7.9,3.8-11.2c3.2-4.2,7.5-6.2,12.9-6.2
			c5.5,0,10,2.1,13.3,6.4c2.4,3,3.5,6.8,3.6,11.3h-29.2c0.1,3.8,1.3,7,3.6,9.4c2.3,2.4,5.2,3.7,8.6,3.7c1.7,0,3.3-0.3,4.8-0.9
			c1.6-0.6,2.9-1.4,4-2.3C-241.2,18.2-240.1,16.6-238.8,14.5"/>
	</g>
	<g id="g3437" transform="translate(381.9969,39.5739)">
		<path id="path3439" class="st0" d="M-276.6-6.9c-2.3,0-4.5,0.6-6.4,1.7c-2,1.2-3.5,2.8-4.7,4.9s-1.7,4.3-1.7,6.7
			c0,2.3,0.6,4.5,1.8,6.7s2.7,3.8,4.7,4.9c2,1.2,4.1,1.8,6.4,1.8s4.4-0.6,6.5-1.8c2-1.2,3.6-2.8,4.7-4.7c1.1-2,1.7-4.2,1.7-6.7
			c0-3.8-1.2-7-3.7-9.6C-269.9-5.6-273-6.9-276.6-6.9 M-259.9-24.6v48.2h-4.1v-6.5c-1.7,2.2-3.7,3.8-5.9,4.9
			c-2.2,1.1-4.6,1.6-7.1,1.6c-4.6,0-8.5-1.7-11.8-5.1s-4.9-7.5-4.9-12.3c0-4.7,1.6-8.8,4.9-12.2s7.2-5.1,11.8-5.1
			c2.7,0,5.1,0.6,7.2,1.7s4.1,2.9,5.7,5.2v-20.5C-264-24.6-259.9-24.6-259.9-24.6z"/>
	</g>
	<g id="g3441" transform="translate(403.1227,44.1731)">
		<path id="path3443" class="st1" d="M-217.4-29c0,0,5.7,3.8,6.7,14.2c0,0,1.9,24.9-11,29.8c0,0,1.2,0.2,2.5,0.2
			c0,0,15.9-10.1,8.6-29.6C-210.6-14.5-212.8-21.3-217.4-29"/>
	</g>
	<g id="g3445" transform="translate(405.3107,39.6981)">
		<path id="path3447" class="st1" d="M-211.2-7.5c0,0-3-4.6,0.8-8.4c0,0,1.3-1.5,5.1-2.4c0,0,3.8-0.8,5.8-5.1c0,0,4.2,5.9,1.6,13.7
			c0,0-1.3,3.5-4,5.1c-2,1.2-5.1,1.6-8.3-1.6c0,0,9.7-5.3,10.1-9.8C-200.1-16-203.1-9.4-211.2-7.5"/>
	</g>
	<g id="g3449" transform="translate(405.3107,39.6981)">
		<path id="path3451" class="st1" d="M-211.2-7.5c0,0-3-4.6,0.8-8.4c0,0,1.3-1.5,5.1-2.4c0,0,3.8-0.8,5.8-5.1c0,0,4.2,5.9,1.6,13.7
			c0,0-1.3,3.5-4,5.1c-2,1.2-5.1,1.6-8.3-1.6c0,0,9.7-5.3,10.1-9.8C-200.1-16-203.1-9.4-211.2-7.5"/>
	</g>
	<g id="g3453" transform="translate(374.4325,34.3011)">
		<path id="path3455" class="st0" d="M-297.8,18.4c-1.1,2.1-2.7,3.6-4.6,4.8c-1.9,1.1-4.1,1.7-6.4,1.7s-4.4-0.6-6.4-1.7
			c-1.9-1.1-3.5-2.7-4.6-4.8s-1.7-4.3-1.7-6.7c0-3.7,1.2-6.8,3.7-9.4s5.5-3.9,9-3.9s6.4,1.3,8.9,3.9s3.8,5.8,3.8,9.4
			C-296.1,14.2-296.7,16.4-297.8,18.4 M-291.9,11.7c0-4.6-1.5-8.5-4.5-11.9c-3.3-3.7-7.4-5.5-12.4-5.5s-9.2,1.8-12.5,5.5
			c-3,3.3-4.5,7.3-4.5,11.9s1.6,8.6,4.7,12.1c3.2,3.4,7.2,5.2,12.2,5.2s9-1.7,12.2-5.2c0.2-0.2,0.4-0.4,0.5-0.6V29h4.1V13.3
			C-291.9,12.7-291.9,12.2-291.9,11.7"/>
	</g>
	<g id="g3457" transform="translate(405.9603,36.0319)">
		<path id="path3459" class="st0" d="M-209.4,10.1c0,2.4-0.6,4.6-1.7,6.7c-1.1,2.1-2.7,3.7-4.6,4.8c-1.9,1.1-4.1,1.7-6.4,1.7
			c-2.3,0-4.5-0.6-6.4-1.7s-3.5-2.7-4.6-4.8s-1.7-4.3-1.7-6.7c0-3.7,1.3-6.9,3.8-9.5s5.5-3.9,9-3.9c1.7,0,3.2,0.3,4.6,0.9
			c0.1-1.5,0.7-2.9,1.3-4.1c-1.8-0.7-3.8-1-5.9-1c-5,0-9.2,1.9-12.5,5.6c-3,3.4-4.5,7.3-4.5,11.9s1.6,8.7,4.7,12.1
			c3.2,3.5,7.2,5.2,12.2,5.2s9-1.7,12.2-5.2s4.7-7.5,4.7-12.1c0-2.5-0.4-4.8-1.3-6.9c-1.5,0.9-2.8,1.4-4,1.6
			C-209.8,6.4-209.4,8.2-209.4,10.1"/>
	</g>
</g>
</svg>
